<svg xmlns="http://www.w3.org/2000/svg" viewBox="0 0 211.55 48"><defs><style>.cls-1{fill:#330072;}</style></defs><title>D2iQ Documentation</title><g id="Layer_2" data-name="Layer 2"><g id="Layer_1-2" data-name="Layer 1"><path class="cls-1" d="M69.21,28a5.18,5.18,0,0,1-3.78,1.44H60.18V16h5.25a5.18,5.18,0,0,1,3.78,1.44c1.38,1.42,1.57,3.42,1.57,5.28S70.59,26.59,69.21,28ZM67.33,19a2.65,2.65,0,0,0-1.9-.76h-2.8v9.06h2.8a2.65,2.65,0,0,0,1.9-.76c1-.95,1-2.54,1-3.78S68.28,19.9,67.33,19Z"/><path class="cls-1" d="M65.43,29.6H60V15.84h5.4a5.28,5.28,0,0,1,3.89,1.49c1.42,1.46,1.61,3.54,1.61,5.38s-.19,3.94-1.62,5.41h0A5.28,5.28,0,0,1,65.43,29.6Zm-5.1-.3h5.1a5,5,0,0,0,3.67-1.39h0c1.35-1.39,1.53-3.41,1.53-5.2s-.18-3.79-1.53-5.18a5,5,0,0,0-3.67-1.39h-5.1Zm5.1-1.9h-3V18h3a2.79,2.79,0,0,1,2,.8c1,1,1,2.67,1,3.87s0,2.87-1,3.89A2.79,2.79,0,0,1,65.43,27.4Zm-2.65-.3h2.65a2.51,2.51,0,0,0,1.79-.71c.92-.93.92-2.52.92-3.68s0-2.73-.92-3.65a2.48,2.48,0,0,0-1.79-.72H62.78Z"/><path class="cls-1" d="M81.9,28.16a4.66,4.66,0,0,1-6.92,0,5.36,5.36,0,0,1-1.16-3.64A5.37,5.37,0,0,1,75,20.87a4.66,4.66,0,0,1,6.92,0,5.37,5.37,0,0,1,1.16,3.65A5.36,5.36,0,0,1,81.9,28.16Zm-2-6.13a2.1,2.1,0,0,0-3,0,3.62,3.62,0,0,0-.7,2.49,3.61,3.61,0,0,0,.7,2.48,2.1,2.1,0,0,0,3,0,3.61,3.61,0,0,0,.7-2.48A3.62,3.62,0,0,0,79.94,22Z"/><path class="cls-1" d="M78.44,29.85a4.67,4.67,0,0,1-3.57-1.59,5.53,5.53,0,0,1-1.2-3.74,5.54,5.54,0,0,1,1.2-3.75,4.8,4.8,0,0,1,7.14,0,5.54,5.54,0,0,1,1.2,3.75A5.58,5.58,0,0,1,82,28.26h0A4.67,4.67,0,0,1,78.44,29.85Zm0-10.37A4.39,4.39,0,0,0,75.1,21,5.28,5.28,0,0,0,74,24.52a5.27,5.27,0,0,0,1.13,3.55,4.51,4.51,0,0,0,6.68,0,5.27,5.27,0,0,0,1.13-3.55A5.28,5.28,0,0,0,81.78,21,4.37,4.37,0,0,0,78.44,19.48Zm0,8.3a2.21,2.21,0,0,1-1.61-.67,3.84,3.84,0,0,1-.74-2.59,3.81,3.81,0,0,1,.74-2.59,2.26,2.26,0,0,1,3.22,0h0a3.81,3.81,0,0,1,.74,2.59,3.8,3.8,0,0,1-.74,2.58A2.17,2.17,0,0,1,78.44,27.78Zm0-6.23a1.94,1.94,0,0,0-1.39.58,3.43,3.43,0,0,0-.66,2.39,3.42,3.42,0,0,0,.66,2.38,2,2,0,0,0,2.78,0,3.42,3.42,0,0,0,.66-2.38,3.45,3.45,0,0,0-.66-2.39A1.94,1.94,0,0,0,78.44,21.55Z"/><path class="cls-1" d="M94,28.11a4.32,4.32,0,0,1-3.38,1.55,4.54,4.54,0,0,1-3.44-1.55,5.7,5.7,0,0,1-1.08-3.61,5.66,5.66,0,0,1,1.08-3.61,4.51,4.51,0,0,1,3.44-1.56A4.3,4.3,0,0,1,94,20.89,3.83,3.83,0,0,1,94.74,23H92.41a2,2,0,0,0-.29-.91,1.72,1.72,0,0,0-1.52-.74,1.93,1.93,0,0,0-1.44.61,3.69,3.69,0,0,0-.67,2.51A3.6,3.6,0,0,0,89.16,27a1.91,1.91,0,0,0,1.44.63,1.72,1.72,0,0,0,1.52-.74,2,2,0,0,0,.29-.91h2.33A3.86,3.86,0,0,1,94,28.11Z"/><path class="cls-1" d="M90.6,29.81a4.63,4.63,0,0,1-3.55-1.61,5.81,5.81,0,0,1-1.12-3.7,5.82,5.82,0,0,1,1.12-3.71,4.63,4.63,0,0,1,3.55-1.61,4.5,4.5,0,0,1,3.5,1.61A4.09,4.09,0,0,1,94.89,23v.15H92.26V23A1.81,1.81,0,0,0,92,22.2a1.58,1.58,0,0,0-1.39-.67,1.8,1.8,0,0,0-1.33.56,3.6,3.6,0,0,0-.63,2.41,3.52,3.52,0,0,0,.63,2.38,1.77,1.77,0,0,0,1.33.58,1.61,1.61,0,0,0,1.4-.67,1.92,1.92,0,0,0,.26-.84v-.14H94.9V26a4.06,4.06,0,0,1-.79,2.23h0A4.5,4.5,0,0,1,90.6,29.81Zm0-10.33A4.37,4.37,0,0,0,87.28,21a5.51,5.51,0,0,0-1,3.52,5.48,5.48,0,0,0,1,3.51,4.33,4.33,0,0,0,3.32,1.5A4.18,4.18,0,0,0,93.86,28a3.64,3.64,0,0,0,.72-1.9h-2a2,2,0,0,1-.29.84,1.89,1.89,0,0,1-1.65.81,2.07,2.07,0,0,1-1.55-.67,3.82,3.82,0,0,1-.71-2.59,3.83,3.83,0,0,1,.71-2.61,2.07,2.07,0,0,1,1.55-.66,1.89,1.89,0,0,1,1.65.81,2,2,0,0,1,.29.84h2a3.64,3.64,0,0,0-.72-1.9A4.18,4.18,0,0,0,90.6,19.48Z"/><path class="cls-1" d="M104.55,29.45l-.17-1.29a3.06,3.06,0,0,1-2.84,1.54,3.26,3.26,0,0,1-3.41-3.53V19.58h2.37v6.06c0,1.15.46,1.88,1.71,1.88a1.64,1.64,0,0,0,1.22-.5,3,3,0,0,0,.72-2.22V19.58h2.37v9.87Z"/><path class="cls-1" d="M101.54,29.85A3.39,3.39,0,0,1,98,26.17V19.43h2.67v6.21c0,1.19.48,1.73,1.56,1.73a1.51,1.51,0,0,0,1.11-.45A3,3,0,0,0,104,24.8V19.43h2.67V29.6h-2.25l-.14-1A3.33,3.33,0,0,1,101.54,29.85ZM98.27,19.73v6.44a3.12,3.12,0,0,0,3.27,3.38,2.91,2.91,0,0,0,2.7-1.45l.22-.45.22,1.65h1.69V19.73H104.3V24.8a3.07,3.07,0,0,1-.77,2.33,1.78,1.78,0,0,1-1.32.54c-1.23,0-1.86-.69-1.86-2V19.73Z"/><path class="cls-1" d="M122.56,29.45V23.32c0-1.22-.33-1.92-1.52-1.92-1.35,0-1.94,1.42-1.94,2.66v5.39h-2.36V23.32c0-1.22-.32-1.92-1.52-1.92s-2,1.42-2,2.66v5.39h-2.36V19.58h2l.19,1.31a3.17,3.17,0,0,1,2.81-1.56,2.93,2.93,0,0,1,2.83,1.61,3.29,3.29,0,0,1,3-1.61c2.11,0,3.21,1.4,3.21,3.46v6.66Z"/><path class="cls-1" d="M125.06,29.6h-2.65V23.32c0-1.29-.37-1.77-1.37-1.77-1.23,0-1.79,1.3-1.79,2.51V29.6h-2.66V23.32c0-1.29-.37-1.77-1.37-1.77-1.32,0-1.8,1.5-1.8,2.51V29.6h-2.66V19.43H113l.15,1.05a3.32,3.32,0,0,1,2.72-1.3,3.1,3.1,0,0,1,2.84,1.47,3.43,3.43,0,0,1,3-1.47c2.11,0,3.36,1.35,3.36,3.61Zm-2.35-.3h2.05V22.79c0-2.07-1.14-3.31-3.06-3.31A3.13,3.13,0,0,0,118.85,21l-.14.24-.12-.25a2.8,2.8,0,0,0-2.7-1.53A3,3,0,0,0,113.21,21l-.22.36-.23-1.59h-1.7V29.3h2.06V24.06c0-1.4.72-2.81,2.1-2.81s1.67,1.05,1.67,2.07v6H119V24.06c0-1.35.65-2.81,2.09-2.81s1.67,1.05,1.67,2.07Z"/><path class="cls-1" d="M137.49,25.26h-6.61a2.59,2.59,0,0,0,.72,1.93,2.06,2.06,0,0,0,1.47.61,1.85,1.85,0,0,0,1.44-.47,1.76,1.76,0,0,0,.47-.84h2.28a3.79,3.79,0,0,1-.83,1.82,4.24,4.24,0,0,1-3.33,1.39A4.3,4.3,0,0,1,130,28.49a5.36,5.36,0,0,1-1.52-4,5.55,5.55,0,0,1,1.42-4,4.29,4.29,0,0,1,3.16-1.25,4.19,4.19,0,0,1,3.61,1.82,5.57,5.57,0,0,1,.85,3.44S137.49,25.05,137.49,25.26Zm-3-3.46a2.21,2.21,0,0,0-3.15.19,2.39,2.39,0,0,0-.52,1.54h4.28A2.59,2.59,0,0,0,134.53,21.8Z"/><path class="cls-1" d="M133.1,29.85a4.46,4.46,0,0,1-3.22-1.26,5.53,5.53,0,0,1-1.56-4.06,5.68,5.68,0,0,1,1.47-4.05,4.41,4.41,0,0,1,3.26-1.3,4.3,4.3,0,0,1,3.73,1.89,5.68,5.68,0,0,1,.88,3.53s0,.45,0,.66v.15H131a2.47,2.47,0,0,0,.68,1.68,1.93,1.93,0,0,0,1.36.56,1.68,1.68,0,0,0,1.33-.43,1.56,1.56,0,0,0,.44-.77l0-.11h2.56l0,.17a4,4,0,0,1-.87,1.9A4.37,4.37,0,0,1,133.1,29.85Zm0-10.37A4.14,4.14,0,0,0,130,20.69a5.41,5.41,0,0,0-1.38,3.84,5.26,5.26,0,0,0,1.47,3.85,4.17,4.17,0,0,0,3,1.17,4.1,4.1,0,0,0,3.21-1.33,3.85,3.85,0,0,0,.78-1.58h-2a1.94,1.94,0,0,1-.48.79,2,2,0,0,1-1.55.52,2.24,2.24,0,0,1-1.57-.65,2.78,2.78,0,0,1-.77-2.05v-.14h6.61c0-.23,0-.52,0-.52a5.31,5.31,0,0,0-.83-3.35A4,4,0,0,0,133.05,19.48Zm2.24,4.2h-4.58v-.16a2.57,2.57,0,0,1,.55-1.62,2.16,2.16,0,0,1,1.77-.82,2.12,2.12,0,0,1,1.61.62h0a2.72,2.72,0,0,1,.65,1.82Zm-4.27-.3h4a2.38,2.38,0,0,0-.56-1.48,2.07,2.07,0,0,0-2.92.18A2.19,2.19,0,0,0,131,23.38Z"/><path class="cls-1" d="M147.2,29.45V23.39c0-1.15-.38-1.86-1.63-1.86a1.85,1.85,0,0,0-1.71,1.26,6.91,6.91,0,0,0-.33,2.64v4h-2.37V19.58h2l.18,1.27a3.41,3.41,0,0,1,6.25,2v6.59Z"/><path class="cls-1" d="M149.73,29.6h-2.68V23.39c0-1.21-.43-1.71-1.48-1.71A1.75,1.75,0,0,0,144,22.85a6.38,6.38,0,0,0-.31,2.45v4.3H141V19.43h2.28l.13,1a3.48,3.48,0,0,1,2.81-1.25,3.37,3.37,0,0,1,3.5,3.68Zm-2.38-.3h2.08V22.86a3.26,3.26,0,0,0-6-1.94l-.22.39L143,19.73h-1.71V29.3h2.07v-4a6.63,6.63,0,0,1,.34-2.57,2,2,0,0,1,1.85-1.35c1.6,0,1.78,1.15,1.78,2Z"/><path class="cls-1" d="M157.37,29.59a2.71,2.71,0,0,1-3-3v-5h-1.8v-2h1.8V17.07l2.38-.59v3.1h2.49v2h-2.49v4.81c0,.76.34,1.08,1.1,1.08a13,13,0,0,0,1.54-.09v2A8.14,8.14,0,0,1,157.37,29.59Z"/><path class="cls-1" d="M157.37,29.74a2.86,2.86,0,0,1-3.14-3.19V21.68h-1.8V19.43h1.8V17l2.68-.66v3.14h2.49v2.25h-2.49v4.66c0,.67.27.93,1,.93a11.34,11.34,0,0,0,1.52-.09l.17,0v2.28l-.11,0A8.35,8.35,0,0,1,157.37,29.74Zm-4.64-8.36h1.8v5.17a2.56,2.56,0,0,0,2.84,2.89,7.69,7.69,0,0,0,1.88-.24V27.5a12.36,12.36,0,0,1-1.39.07c-.85,0-1.25-.39-1.25-1.23v-5h2.49V19.73h-2.49V16.67l-2.08.52v2.54h-1.8Z"/><path class="cls-1" d="M170.27,29.61a1.56,1.56,0,0,1-1.68-1.39,3.44,3.44,0,0,1-3,1.48c-2.35,0-3.57-1.48-3.57-3.1,0-1.88,1.46-3,3.35-3.09l2.9-.21v-.61c0-.93-.32-1.56-1.67-1.56-1.1,0-1.75.5-1.8,1.41h-2.3c.13-2.22,1.9-3.21,4.1-3.21,1.69,0,3.13.53,3.7,2a5.43,5.43,0,0,1,.29,2V27c0,.46.15.63.55.63a1.34,1.34,0,0,0,.3,0v1.75A2.35,2.35,0,0,1,170.27,29.61Zm-2-4.54-2.51.19a1.38,1.38,0,0,0-1.42,1.29,1.29,1.29,0,0,0,1.41,1.23,2.23,2.23,0,0,0,2.52-2.26Z"/><path class="cls-1" d="M165.59,29.85c-2.55,0-3.72-1.68-3.72-3.25,0-1.82,1.37-3.09,3.48-3.24l2.77-.2v-.47c0-.84-.26-1.41-1.52-1.41-.72,0-1.59.22-1.65,1.27v.14h-2.6v-.16c.12-2.1,1.71-3.35,4.25-3.35,2,0,3.31.73,3.84,2.11a5.64,5.64,0,0,1,.3,2.05V27c0,.41.12.48.4.48a1.5,1.5,0,0,0,.27,0l.18-.05v2l-.09,0a2.49,2.49,0,0,1-1.23.28,1.73,1.73,0,0,1-1.75-1.17A3.76,3.76,0,0,1,165.59,29.85Zm1-8.87c1.61,0,1.82.92,1.82,1.71v.75l-3,.22c-1.55.11-3.21.94-3.21,2.94,0,1.47,1.06,2.95,3.42,2.95a3.28,3.28,0,0,0,2.87-1.4l.24-.41,0,.46a1.41,1.41,0,0,0,1.53,1.26,2.14,2.14,0,0,0,1-.22V27.77h-.15c-.48,0-.7-.24-.7-.78V23.34a5.3,5.3,0,0,0-.27-1.94c-.49-1.28-1.69-1.92-3.57-1.92-2.33,0-3.76,1.06-3.94,2.91h2C164.78,21.49,165.48,21,166.6,21Zm-.85,7a1.44,1.44,0,0,1-1.56-1.38,1.54,1.54,0,0,1,1.56-1.44l2.67-.21v.62A2.36,2.36,0,0,1,165.75,27.93Zm2.37-2.7-2.34.18a1.24,1.24,0,0,0-1.29,1.14,1.16,1.16,0,0,0,1.26,1.08,2.09,2.09,0,0,0,2.37-2.11Z"/><path class="cls-1" d="M178.4,29.59a2.71,2.71,0,0,1-3-3v-5h-1.81v-2h1.81V17.07l2.37-.59v3.1h2.49v2h-2.49v4.81c0,.76.34,1.08,1.1,1.08a12.8,12.8,0,0,0,1.54-.09v2A8.08,8.08,0,0,1,178.4,29.59Z"/><path class="cls-1" d="M178.4,29.74a2.85,2.85,0,0,1-3.13-3.19V21.68h-1.81V19.43h1.81V17l2.67-.66v3.14h2.49v2.25h-2.49v4.66c0,.67.27.93.95.93a11.26,11.26,0,0,0,1.52-.09l.17,0v2.28l-.11,0A8.35,8.35,0,0,1,178.4,29.74Zm-4.64-8.36h1.81v5.17a2.56,2.56,0,0,0,2.83,2.89,7.69,7.69,0,0,0,1.88-.24V27.5a12.25,12.25,0,0,1-1.39.07c-.85,0-1.25-.39-1.25-1.23v-5h2.49V19.73h-2.49V16.67l-2.07.52v2.54h-1.81Z"/><path class="cls-1" d="M183.83,18.21V15.76h2.55v2.45Zm.08,11.24V19.58h2.41v9.87Z"/><path class="cls-1" d="M186.47,29.6h-2.71V19.43h2.71Zm-2.41-.3h2.11V19.73h-2.11Zm2.47-10.94h-2.85V15.61h2.85Zm-2.55-.3h2.25V15.91H184Z"/><path class="cls-1" d="M198.12,28.16a4.65,4.65,0,0,1-6.91,0,5.31,5.31,0,0,1-1.16-3.64,5.32,5.32,0,0,1,1.16-3.65,4.65,4.65,0,0,1,6.91,0,5.37,5.37,0,0,1,1.16,3.65A5.36,5.36,0,0,1,198.12,28.16Zm-2-6.13a2.1,2.1,0,0,0-3,0,3.62,3.62,0,0,0-.7,2.49,3.61,3.61,0,0,0,.7,2.48,2.1,2.1,0,0,0,3,0,3.62,3.62,0,0,0,.71-2.48A3.63,3.63,0,0,0,196.16,22Z"/><path class="cls-1" d="M194.66,29.85a4.67,4.67,0,0,1-3.57-1.59,5.53,5.53,0,0,1-1.19-3.74,5.54,5.54,0,0,1,1.19-3.75,4.81,4.81,0,0,1,7.15,0,5.59,5.59,0,0,1,1.19,3.75,5.58,5.58,0,0,1-1.19,3.74h0A4.68,4.68,0,0,1,194.66,29.85Zm0-10.37A4.39,4.39,0,0,0,191.32,21a5.28,5.28,0,0,0-1.12,3.56,5.27,5.27,0,0,0,1.12,3.55,4.51,4.51,0,0,0,6.68,0,5.27,5.27,0,0,0,1.13-3.55A5.28,5.28,0,0,0,198,21,4.37,4.37,0,0,0,194.66,19.48Zm0,8.3a2.21,2.21,0,0,1-1.61-.67,3.89,3.89,0,0,1-.74-2.59,3.86,3.86,0,0,1,.74-2.59,2.26,2.26,0,0,1,3.22,0h0a3.82,3.82,0,0,1,.75,2.59,3.81,3.81,0,0,1-.75,2.58A2.17,2.17,0,0,1,194.66,27.78Zm0-6.23a1.94,1.94,0,0,0-1.39.58,3.43,3.43,0,0,0-.66,2.39,3.42,3.42,0,0,0,.66,2.38,2,2,0,0,0,2.78,0,3.37,3.37,0,0,0,.67-2.38,3.4,3.4,0,0,0-.67-2.39A1.94,1.94,0,0,0,194.66,21.55Z"/><path class="cls-1" d="M209,29.45V23.39c0-1.15-.38-1.86-1.64-1.86a1.87,1.87,0,0,0-1.71,1.26,6.9,6.9,0,0,0-.32,2.64v4H203V19.58h2l.17,1.27a3.41,3.41,0,0,1,6.25,2v6.59Z"/><path class="cls-1" d="M211.55,29.6h-2.67V23.39c0-1.21-.43-1.71-1.49-1.71a1.74,1.74,0,0,0-1.57,1.17,6.38,6.38,0,0,0-.31,2.45v4.3h-2.67V19.43h2.27l.14,1a3.48,3.48,0,0,1,2.81-1.25,3.36,3.36,0,0,1,3.49,3.68Zm-2.37-.3h2.07V22.86a3.26,3.26,0,0,0-6-1.94l-.22.39-.21-1.58h-1.71V29.3h2.07v-4a6.63,6.63,0,0,1,.34-2.57,2,2,0,0,1,1.84-1.35c1.6,0,1.79,1.15,1.79,2Z"/><path class="cls-1" d="M31.12,28.54a2.59,2.59,0,0,0-2.59,2.6v5.18a2.59,2.59,0,0,0,4,2.15l-2.42-2.42L32,34.21l1.73,1.73v-4.8A2.59,2.59,0,0,0,31.12,28.54Z"/><path class="cls-1" d="M16.86,9.08H14.27V19.46h2.59a2.59,2.59,0,0,0,2.6-2.6V11.68A2.59,2.59,0,0,0,16.86,9.08Z"/><path class="cls-1" d="M0,0V48H48V0ZM22.05,28.54H18.16V38.92h3.89v2.59H11.68V38.92h3.89V28.54H11.68V26H22.05Zm0-11.68a5.19,5.19,0,0,1-5.19,5.19H11.68V6.49h5.18a5.19,5.19,0,0,1,5.19,5.19Zm3.9.65A4.54,4.54,0,0,1,30.49,13h1.29a1.95,1.95,0,1,0,0-3.89H26V6.49h5.83a4.54,4.54,0,0,1,0,9.08H30.49a1.94,1.94,0,0,0-1.95,1.94v1.95h7.77v2.59H25.93ZM36.39,42.28l-2-2a5.14,5.14,0,0,1-3.31,1.19,5.19,5.19,0,0,1-5.19-5.19V31.14a5.19,5.19,0,0,1,10.38,0v5.18A5.26,5.26,0,0,1,36,38.19l2.25,2.26Z"/></g></g></svg>