<svg width="32" height="23" viewBox="0 0 32 23" version="1.1" xmlns="http://www.w3.org/2000/svg" xmlns:xlink="http://www.w3.org/1999/xlink">
<title>Vector</title>
<desc>Created using Figma</desc>
<g id="Canvas" transform="translate(2662 -13131)">
<g id="Vector">
<use xlink:href="#path0_fill" transform="translate(-2662 13131.1)" fill="url(#paint0_linear)"/>
</g>
</g>
<defs>
<linearGradient id="paint0_linear" x1="0" y1="0" x2="1" y2="0" gradientUnits="userSpaceOnUse" gradientTransform="matrix(31.491 0 0 31.2655 0.0150506 -4.15631)">
<stop offset="0" stop-color="#7D58FF"/>
<stop offset="1" stop-color="#FF007D"/>
</linearGradient>
<path id="path0_fill" d="M 30.3327 0.229889C 30.1012 0.0919557 29.777 0 29.3602 0L 2.13024 0C 1.85238 0 1.43559 0.0459778 1.11143 0.275867C 0.416786 0.64369 1.1041e-08 1.33336 1.1041e-08 2.11498L 1.1041e-08 17.7934C 1.1041e-08 18.8969 0.740952 19.4027 1.43559 19.4027C 1.75976 19.4027 2.08393 19.3107 2.36178 19.1268L 9.35452 14.8508L 14.3559 22.1613C 14.6801 22.6671 15.2358 22.9429 15.7452 22.9429C 16.3009 22.9429 16.8104 22.6671 17.1345 22.1613L 23.4789 12.8738L 29.1287 15.6325C 29.8696 16.0003 30.6106 15.8624 31.0737 15.3106C 31.3052 15.0348 31.4442 14.621 31.4442 14.1612L 31.4442 2.11498C 31.4905 1.33336 31.0274 0.597712 30.3327 0.229889ZM 8.47464 13.4715L 1.66714 17.6095L 1.66714 3.49432L 8.47464 13.4715ZM 27.8783 3.49432L 22.9232 10.7588L 19.0795 8.87372L 27.8783 3.49432ZM 4.35309 1.6552L 27.7857 1.6552L 17.3661 8.00015L 4.35309 1.6552ZM 21.997 12.0922L 15.7915 21.2418C 15.7915 21.2877 15.7452 21.2877 15.7452 21.2877L 15.6989 21.2418L 10.7901 13.9773L 17.4587 9.88524L 21.997 12.0922ZM 15.7452 9.01166L 9.86392 12.6439L 3.24167 2.94258L 15.7452 9.01166ZM 29.8696 3.49432L 29.8696 14.1152L 24.4514 11.4485L 29.8696 3.49432Z"/>
</defs>
</svg>
