<?xml version="1.0" encoding="UTF-8"?>
<svg width="503px" height="48px" viewBox="0 0 503 48" version="1.1" xmlns="http://www.w3.org/2000/svg" xmlns:xlink="http://www.w3.org/1999/xlink">
    <!-- Generator: Sketch 48.2 (47327) - http://www.bohemiancoding.com/sketch -->
    <title>header--mesosphere-dcos-logo--monochromatic--inverse</title>
    <desc>Created with Sketch.</desc>
    <defs></defs>
    <g id="Page-1" stroke="none" stroke-width="1" fill="none" fill-rule="evenodd">
        <g id="header--mesosphere-dcos-logo--monochromatic--inverse" fill="#FFFFFF">
            <path d="M502.352445,25.7468984 L502.352445,26.7058932 C502.352445,27.9936 502.086057,29.2230031 501.562329,30.3589194 C501.05368,31.4656838 500.358057,32.4498094 499.498581,33.2851602 C498.638099,34.1185005 497.626832,34.7829613 496.491921,35.2594429 C495.347963,35.7409508 494.122581,35.9842178 492.849952,35.9842178 L490.551984,35.9842178 C489.280361,35.9842178 488.053973,35.7409508 486.910015,35.2594429 C485.775104,34.7829613 484.763837,34.1185005 483.904361,33.2851602 C483.043879,32.4498094 482.348256,31.4646785 481.839607,30.3579141 C481.316884,29.2230031 481.050497,27.9936 481.050497,26.7058932 L481.050497,24.5647414 L486.78235,24.5647414 L486.78235,26.7058932 C486.78235,27.2044901 486.883879,27.6719246 487.081911,28.0941236 C487.296026,28.5484901 487.586539,28.9536 487.947418,29.2973906 C488.308298,29.6431916 488.734518,29.9176209 489.21301,30.1146471 C489.68346,30.3096628 490.186078,30.4081759 490.708801,30.4081759 L492.716256,30.4081759 C493.235963,30.4081759 493.733555,30.3106681 494.194958,30.1166576 C494.669429,29.9186262 495.093638,29.6431916 495.454518,29.2973906 C495.816403,28.9536 496.106916,28.5484901 496.321031,28.0941236 C496.519062,27.6719246 496.619586,27.2044901 496.619586,26.7058932 L496.619586,25.7468984 C496.619586,24.9105424 496.468801,24.2330136 496.171251,23.7303958 C495.843544,23.1745005 495.39923,22.6939979 494.850371,22.2999455 C494.232151,21.8556314 493.52145,21.4746471 492.736361,21.1630241 C491.843712,20.8081759 490.926937,20.4553382 489.984026,20.1014953 C488.99789,19.7315686 488.025827,19.3174115 487.091963,18.8700817 C486.070644,18.3805319 485.140801,17.7592963 484.329576,17.0234639 C483.47613,16.2494325 482.784528,15.2954639 482.274874,14.186689 C481.758183,13.0658513 481.495816,11.7017466 481.495816,10.1325738 L481.495816,9.5304377 C481.495816,8.25479372 481.742099,7.03644817 482.225617,5.91058429 C482.70411,4.79678325 483.372591,3.80562094 484.212968,2.96624921 C485.05234,2.12687749 486.047523,1.45839581 487.170371,0.978898429 C488.304277,0.49638534 489.524633,0.251107853 490.797261,0.251107853 L492.849952,0.251107853 C494.125596,0.251107853 495.343942,0.49638534 496.468801,0.979903665 C497.582602,1.45940105 498.574769,2.12788272 499.413136,2.96624921 C500.253513,3.80562094 500.921994,4.79678325 501.399481,5.91158953 C501.884005,7.03644817 502.129282,8.25479372 502.129282,9.5304377 L502.129282,11.200134 L496.396424,11.200134 L496.396424,9.5304377 C496.396424,9.01575707 496.300926,8.53525445 496.112947,8.10199791 C495.917932,7.65366283 495.650539,7.25659476 495.319816,6.92587225 C494.988089,6.59514974 494.594036,6.32775707 494.143691,6.1337466 C493.710434,5.9447623 493.229932,5.85027016 492.716256,5.85027016 L490.931963,5.85027016 C490.417282,5.85027016 489.937785,5.9447623 489.502518,6.1337466 C489.051167,6.32976754 488.649073,6.59917068 488.308298,6.93491937 C487.973555,7.26363141 487.705157,7.65667853 487.513157,8.10099267 C487.324172,8.53525445 487.22968,9.01575707 487.22968,9.5304377 L487.22968,10.1325738 C487.22968,10.8854953 487.374434,11.5037152 487.662937,11.9691393 C487.989638,12.4999037 488.433952,12.962312 488.982811,13.3443016 C489.605052,13.7785634 490.323795,14.1625634 491.122958,14.4862492 C492.018623,14.8491393 492.941429,15.2200712 493.891377,15.5980398 C494.876507,15.9910869 495.849576,16.4293696 496.781429,16.8988147 C497.795712,17.4094743 498.720528,18.0488042 499.530748,18.7997152 C500.381178,19.5878199 501.069764,20.5558618 501.577408,21.6777047 C502.092089,22.8126157 502.352445,24.1807414 502.352445,25.7468984 Z M471.305753,2.96624921 C472.14613,3.80562094 472.813606,4.79678325 473.291093,5.91158953 C473.775617,7.03644817 474.020894,8.25479372 474.020894,9.5304377 L474.020894,26.7058932 C474.020894,27.9815372 473.775617,29.1998827 473.291093,30.3247414 C472.813606,31.4395476 472.14613,32.4286995 471.305753,33.2690764 C470.465376,34.1094534 469.474214,34.7769298 468.360413,35.255422 C467.236559,35.7389403 466.018214,35.9842178 464.741564,35.9842178 L462.466716,35.9842178 C461.192077,35.9842178 459.972727,35.7399455 458.838821,35.2564272 C457.715973,34.7779351 456.721795,34.1094534 455.881418,33.2690764 C455.041041,32.4297047 454.372559,31.4395476 453.895072,30.3237361 C453.410549,29.1998827 453.165271,27.9815372 453.165271,26.7058932 L453.165271,9.5304377 C453.165271,8.25479372 453.410549,7.03644817 453.895072,5.91058429 C454.372559,4.79678325 455.041041,3.80562094 455.881418,2.96624921 C456.721795,2.12687749 457.715973,1.45839581 458.838821,0.978898429 C459.972727,0.49638534 461.192077,0.251107853 462.466716,0.251107853 L464.741564,0.251107853 C466.018214,0.251107853 467.235554,0.49638534 468.360413,0.979903665 C469.475219,1.45940105 470.466381,2.12788272 471.305753,2.96624921 Z M468.286037,26.7058932 L468.286037,9.5304377 C468.286037,9.01575707 468.189535,8.53525445 468.002561,8.10199791 C467.80654,7.65366283 467.540153,7.25659476 467.208425,6.92587225 C466.876697,6.59514974 466.482645,6.32775707 466.03431,6.1337466 C465.600048,5.9447623 465.11854,5.85027016 464.60587,5.85027016 L462.598414,5.85027016 C462.083734,5.85027016 461.603231,5.9447623 461.168969,6.1337466 C460.715608,6.32976754 460.313514,6.59917068 459.973744,6.93491937 C459.639001,7.26363141 459.371608,7.65667853 459.178603,8.10099267 C458.990624,8.53525445 458.895126,9.01575707 458.895126,9.5304377 L458.895126,26.7058932 C458.895126,27.2185634 458.990624,27.7000712 459.178603,28.1333277 C459.373619,28.5826681 459.644027,28.9817466 459.981786,29.320511 C460.32055,29.6592754 460.719629,29.9296838 461.168969,30.1236942 C461.603231,30.3126785 462.083734,30.4081759 462.598414,30.4081759 L464.60587,30.4081759 C465.11854,30.4081759 465.600048,30.3126785 466.033304,30.1246995 C466.477619,29.9316942 466.871671,29.6643016 467.201388,29.3285529 C467.537137,28.9867728 467.805535,28.5846785 468.001556,28.134333 C468.189535,27.7000712 468.286037,27.2185634 468.286037,26.7058932 Z M423.432399,5.91158953 C423.917928,7.03644817 424.163205,8.25479372 424.163205,9.5304377 L424.163205,11.200134 L418.430347,11.200134 L418.430347,9.5304377 C418.430347,9.01575707 418.334849,8.53525445 418.145865,8.10199791 C417.950849,7.65366283 417.684462,7.25659476 417.353739,6.92587225 C417.022012,6.59514974 416.626954,6.32775707 416.177614,6.1337466 C415.744357,5.9447623 415.263855,5.85027016 414.749174,5.85027016 L412.741718,5.85027016 C412.228043,5.85027016 411.74754,5.9447623 411.314284,6.1337466 C410.860923,6.32976754 410.458828,6.59917068 410.118054,6.93491937 C409.784315,7.26363141 409.515917,7.65667853 409.323917,8.10099267 C409.135938,8.53525445 409.039436,9.01575707 409.039436,9.5304377 L409.039436,26.7058932 C409.039436,27.2185634 409.135938,27.7000712 409.322912,28.1333277 C409.517928,28.5826681 409.788336,28.9817466 410.127101,29.320511 C410.465865,29.6592754 410.864944,29.9296838 411.314284,30.1236942 C411.74754,30.3126785 412.228043,30.4081759 412.741718,30.4081759 L414.749174,30.4081759 C415.263855,30.4081759 415.744357,30.3126785 416.176608,30.1246995 C416.622933,29.9316942 417.014975,29.6643016 417.345697,29.3285529 C417.681446,28.9867728 417.950849,28.5846785 418.14486,28.134333 C418.334849,27.7000712 418.430347,27.2185634 418.430347,26.7058932 L418.430347,24.5647414 L424.163205,24.5647414 L424.163205,26.7058932 C424.163205,27.9815372 423.917928,29.1998827 423.432399,30.3247414 C422.955917,31.4395476 422.287436,32.4286995 421.447059,33.2690764 C420.606682,34.1094534 419.615519,34.7769298 418.502724,35.255422 C417.377865,35.7389403 416.159519,35.9842178 414.88287,35.9842178 L412.609027,35.9842178 C411.334389,35.9842178 410.115038,35.7399455 408.982137,35.2564272 C407.858284,34.7779351 406.863101,34.1094534 406.022724,33.2690764 C405.182347,32.4286995 404.51487,31.4395476 404.036378,30.3237361 C403.55286,29.1998827 403.307582,27.9815372 403.307582,26.7058932 L403.307582,9.5304377 C403.307582,8.25479372 403.55286,7.03644817 404.036378,5.91058429 C404.51487,4.79678325 405.182347,3.80562094 406.022724,2.96624921 C406.863101,2.12687749 407.858284,1.45839581 408.981132,0.978898429 C410.115038,0.49638534 411.334389,0.251107853 412.609027,0.251107853 L414.88287,0.251107853 C416.159519,0.251107853 417.37686,0.49638534 418.502724,0.979903665 C419.616525,1.45940105 420.607687,2.12788272 421.447059,2.96624921 C422.287436,3.80562094 422.955917,4.79678325 423.432399,5.91158953 Z M393.554786,3.41357906 C394.394158,4.25295079 395.063645,5.24813403 395.542137,6.3709822 C396.026661,7.50488796 396.270933,8.72524398 396.270933,9.99887749 L396.270933,26.2585634 C396.270933,27.5352126 396.025656,28.7535581 395.540127,29.879422 C395.063645,30.9922178 394.394158,31.9823749 393.554786,32.8227518 C392.715415,33.6621236 391.719226,34.3316105 390.596378,34.8101026 C389.462472,35.2946262 388.243122,35.5388984 386.969488,35.5388984 L375.41531,35.5388984 L375.41531,0.697432461 L386.969488,0.697432461 C388.243122,0.697432461 389.462472,0.942709948 390.595373,1.42522304 C391.719226,1.90472042 392.715415,2.57420733 393.554786,3.41357906 Z M390.538074,26.2585634 L390.538074,9.99887749 C390.538074,9.48520209 390.442577,9.00469948 390.253593,8.5704377 C390.059582,8.12109738 389.788169,7.72201885 389.45041,7.38325445 C389.111645,7.04449005 388.711561,6.77408168 388.263226,6.57906597 C387.828964,6.39108691 387.349467,6.29558953 386.834786,6.29558953 L381.147163,6.29558953 L381.147163,29.9387309 L386.834786,29.9387309 C387.349467,29.9387309 387.828964,29.8442387 388.263226,29.6562597 C388.714577,29.4602387 389.116671,29.1898304 389.458451,28.8550869 C389.7942,28.5253696 390.060588,28.1323225 390.252588,27.6880084 C390.442577,27.2537466 390.538074,26.773244 390.538074,26.2585634 Z M337.517916,0.722563351 L357.537183,0.722563351 L357.537183,4.62589319 L341.562984,4.62589319 L341.562984,16.1780607 L354.49735,16.1780607 L354.49735,20.0813906 L341.562984,20.0813906 L341.562984,31.6104377 L357.537183,31.6104377 L357.537183,35.5127623 L337.517916,35.5127623 L337.517916,0.722563351 Z M323.834643,20.4060817 C323.034475,20.7498723 322.185051,20.9659979 321.297428,21.0524482 L330.488297,35.5127623 L325.787816,35.5127623 L316.623083,21.0946681 L313.230413,21.0946681 L313.230413,35.5127623 L309.18635,35.5127623 L309.18635,0.722563351 L320.4088,0.722563351 C321.618099,0.722563351 322.772109,0.953767539 323.834643,1.41114974 C324.894161,1.86652147 325.835062,2.50082513 326.631208,3.29697173 C327.427355,4.09311832 328.060654,5.03703455 328.51703,6.10459476 C328.973407,7.17617592 329.204612,8.33219686 329.204612,9.54149529 L329.204612,12.2747309 C329.204612,13.4840293 328.973407,14.6410555 328.51703,15.7116314 C328.060654,16.7791916 327.427355,17.7241131 326.631208,18.5202597 C325.835062,19.3164063 324.894161,19.9507099 323.834643,20.4060817 Z M313.230413,17.1913382 L320.268067,17.1913382 C320.948612,17.1913382 321.590957,17.0626681 322.176004,16.8083435 C322.766078,16.5530136 323.28679,16.1971602 323.726078,15.7508356 C324.166371,15.3025005 324.521219,14.7747518 324.777554,14.1836733 C325.031879,13.5986262 325.160549,12.9562806 325.160549,12.2747309 L325.160549,9.54149529 C325.160549,8.86095079 325.031879,8.21860524 324.777554,7.63355812 C324.521219,7.04147435 324.166371,6.51473089 323.726078,6.06539058 C323.28679,5.6200712 322.766078,5.2642178 322.176004,5.00788272 C321.590957,4.75456335 320.948612,4.62589319 320.268067,4.62589319 L313.230413,4.62589319 L313.230413,17.1913382 Z M281.126203,0.722563351 L301.144465,0.722563351 L301.144465,4.62589319 L285.170266,4.62589319 L285.170266,16.1780607 L298.105638,16.1780607 L298.105638,20.0813906 L285.170266,20.0813906 L285.170266,31.6104377 L301.144465,31.6104377 L301.144465,35.5127623 L281.126203,35.5127623 L281.126203,0.722563351 Z M268.03502,0.722563351 L272.079083,0.722563351 L272.079083,35.5127623 L268.03502,35.5127623 L268.03502,20.0813906 L256.104884,20.0813906 L256.104884,35.5127623 L252.060821,35.5127623 L252.060821,0.722563351 L256.104884,0.722563351 L256.104884,16.1780607 L268.03502,16.1780607 L268.03502,0.722563351 Z M241.444528,3.29697173 C242.240674,4.09311832 242.874978,5.03703455 243.33035,6.10459476 C243.786727,7.17617592 244.018936,8.33219686 244.018936,9.54149529 L244.018936,13.7353382 C244.018936,14.9456419 243.786727,16.0976419 243.329345,17.1621864 C242.873973,18.2217047 242.239669,19.1626052 241.444528,19.9577466 C240.648381,20.7538932 239.70346,21.3892021 238.6359,21.8435686 C237.565324,22.2999455 236.409303,22.5311497 235.198999,22.5311497 L228.044737,22.5311497 L228.044737,35.5127623 L224.000674,35.5127623 L224.000674,0.722563351 L235.198999,0.722563351 C236.409303,0.722563351 237.565324,0.953767539 238.6359,1.41114974 C239.70346,1.86551623 240.648381,2.50082513 241.444528,3.29697173 Z M239.973868,13.7353382 L239.973868,9.54149529 C239.973868,8.86095079 239.846203,8.21860524 239.591879,7.63355812 C239.335544,7.04247958 238.978685,6.51674136 238.531355,6.06840628 C238.084025,5.62107644 237.557282,5.2642178 236.966203,5.00788272 C236.381156,4.75456335 235.739816,4.62589319 235.058266,4.62589319 L228.044737,4.62589319 L228.044737,18.6278199 L235.058266,18.6278199 C235.739816,18.6278199 236.381156,18.500155 236.966203,18.2458304 C237.558287,17.9894953 238.086036,17.6356524 238.534371,17.1943539 C238.97969,16.755066 239.336549,16.2333487 239.591879,15.6442806 C239.846203,15.0592335 239.973868,14.416888 239.973868,13.7353382 Z M215.229994,22.2929089 C215.713512,23.3594639 215.95879,24.6652649 215.95879,26.1751288 L215.95879,27.1884063 C215.95879,28.4027309 215.709491,29.5597571 215.217931,30.626312 C214.729386,31.6838199 214.067941,32.6217047 213.24968,33.4158408 C212.430413,34.209977 211.466392,34.8422702 210.384758,35.2976419 C209.299104,35.7540188 208.136046,35.9842178 206.926748,35.9842178 L204.500109,35.9842178 C203.291816,35.9842178 202.128758,35.7540188 201.043104,35.2976419 C199.960465,34.8422702 198.997449,34.209977 198.177177,33.4158408 C197.359921,32.6217047 196.69747,31.6838199 196.209931,30.626312 C195.718371,29.5597571 195.469072,28.4027309 195.469072,27.1884063 L195.469072,24.5647414 L199.513135,24.5647414 L199.513135,27.1884063 C199.513135,27.8639246 199.651858,28.5022492 199.925282,29.0832754 C200.203732,29.6763644 200.583711,30.2041131 201.054161,30.6534534 C201.524612,31.1027937 202.079502,31.4616628 202.701743,31.7190031 C203.320968,31.9753382 203.981407,32.1050136 204.664968,32.1050136 L206.786015,32.1050136 C207.469575,32.1050136 208.124989,31.9753382 208.735167,31.7200084 C209.351376,31.4616628 209.90124,31.103799 210.372695,30.6534534 C210.844151,30.2041131 211.22413,29.6763644 211.501575,29.0832754 C211.776004,28.5022492 211.913722,27.8649298 211.913722,27.1884063 L211.913722,26.1751288 C211.913722,25.1095791 211.707648,24.2209508 211.300528,23.5333696 C210.883355,22.8276942 210.319418,22.2175162 209.625805,21.7189194 C208.908067,21.2032335 208.084779,20.7599246 207.178057,20.399045 C206.230119,20.0230869 205.255041,19.648134 204.252821,19.2721759 C203.239544,18.8911916 202.238329,18.4649717 201.278329,18.0055791 C200.289177,17.5311079 199.388486,16.929977 198.602392,16.2172649 C197.801219,15.4904796 197.151837,14.591799 196.669324,13.5453487 C196.185805,12.4938723 195.940528,11.1941026 195.940528,9.68323351 L195.940528,9.04691937 C195.940528,7.83762094 196.171732,6.68461571 196.628109,5.62107644 C197.083481,4.56155812 197.717784,3.62065759 198.513931,2.82551623 C199.310078,2.02936963 200.254999,1.39506597 201.322559,0.939694241 C202.39414,0.483317277 203.550161,0.251107853 204.75946,0.251107853 L206.926748,0.251107853 C208.137051,0.251107853 209.289051,0.483317277 210.353596,0.939694241 C211.412109,1.39506597 212.35301,2.02936963 213.149156,2.82551623 C213.944297,3.62065759 214.578601,4.56155812 215.033973,5.62107644 C215.491355,6.68461571 215.722559,7.83762094 215.722559,9.04691937 L215.722559,11.200134 L211.678496,11.200134 L211.678496,9.04691937 C211.678496,8.36637487 211.549826,7.72402932 211.295502,7.13797696 C211.039167,6.54790366 210.687334,6.02518115 210.247041,5.58589319 C209.807753,5.1456 209.28503,4.7927623 208.693952,4.53642723 C208.108905,4.28310785 207.467565,4.1544377 206.786015,4.1544377 L204.901198,4.1544377 C204.219648,4.1544377 203.577303,4.28310785 202.99125,4.53642723 C202.401177,4.79376754 201.872423,5.14761047 201.425093,5.5889089 C200.978769,6.02719162 200.622915,6.5489089 200.36658,7.13797696 C200.113261,7.72402932 199.984591,8.36637487 199.984591,9.04691937 L199.984591,9.68323351 C199.984591,10.6673592 200.188654,11.4976838 200.593763,12.1520921 C201.009931,12.8276105 201.572863,13.4166785 202.267481,13.9001969 C202.987229,14.4028147 203.813533,14.8441131 204.724277,15.2140398 C205.673219,15.5980398 206.650308,15.9900817 207.654538,16.3901654 C208.668821,16.7942702 209.66903,17.2446157 210.628025,17.728134 C211.617177,18.2257257 212.514852,18.8469613 213.299941,19.5757571 C214.099104,20.3166157 214.749491,21.2303749 215.229994,22.2929089 Z M184.853784,2.82573344 C185.648926,3.62094189 186.283229,4.5619218 186.738601,5.62152952 C187.195983,6.68515853 187.427188,7.83826105 187.427188,9.04766151 L187.427188,27.1906791 C187.427188,28.4000795 187.195983,29.5541874 186.738601,30.6168111 C186.283229,31.6764188 185.648926,32.6173987 184.853784,33.4136125 C184.057638,34.2098262 183.116737,34.8431781 182.057219,35.2985883 C180.99368,35.756009 179.840674,35.9872327 178.631376,35.9872327 L176.227858,35.9872327 C175.018559,35.9872327 173.862538,35.756009 172.790957,35.2995936 C171.723397,34.8431781 170.779481,34.2098262 169.983334,33.4136125 C169.187188,32.6173987 168.552884,31.6764188 168.097512,30.6168111 C167.64013,29.5541874 167.408926,28.4000795 167.408926,27.1906791 L167.408926,9.04766151 C167.408926,7.83826105 167.64013,6.68515853 168.097512,5.62152952 C168.552884,4.5619218 169.187188,3.62094189 169.983334,2.82573344 C170.779481,2.02951967 171.723397,1.39516249 172.790957,0.93975234 C173.862538,0.48333687 175.018559,0.251107853 176.227858,0.251107853 L178.631376,0.251107853 C179.840674,0.251107853 180.99368,0.48333687 182.057219,0.93975234 C183.116737,1.39516249 184.057638,2.02951967 184.853784,2.82573344 Z M183.383125,27.1884063 L183.383125,9.04691937 C183.383125,8.36637487 183.254455,7.72402932 183.00013,7.13797696 C182.743795,6.54790366 182.390957,6.02518115 181.951669,5.58589319 C181.511376,5.1456 180.989659,4.7927623 180.39858,4.53743246 C179.813533,4.28310785 179.171188,4.1544377 178.489638,4.1544377 L176.369596,4.1544377 C175.688046,4.1544377 175.046706,4.28310785 174.460654,4.53743246 C173.869575,4.79376754 173.340821,5.14761047 172.893491,5.5889089 C172.447167,6.02719162 172.091313,6.5489089 171.834978,7.13797696 C171.581659,7.72402932 171.452989,8.36637487 171.452989,9.04691937 L171.452989,27.1884063 C171.452989,27.869956 171.581659,28.5123016 171.834978,29.0973487 C172.091313,29.687422 172.449177,30.2141654 172.896507,30.6614953 C173.343837,31.1098304 173.87058,31.4656838 174.460654,31.7220188 C175.046706,31.9763435 175.688046,32.1050136 176.369596,32.1050136 L178.489638,32.1050136 C179.171188,32.1050136 179.813533,31.9763435 180.39858,31.7220188 C180.987648,31.466689 181.50836,31.1098304 181.948654,30.664511 C182.388947,30.2161759 182.743795,29.6884272 183.00013,29.0973487 C183.254455,28.5123016 183.383125,27.869956 183.383125,27.1884063 Z M158.638245,22.2929089 C159.121763,23.3594639 159.367041,24.6652649 159.367041,26.1751288 L159.367041,27.1884063 C159.367041,28.4027309 159.117743,29.5597571 158.626182,30.626312 C158.137638,31.6838199 157.476193,32.6217047 156.657931,33.4158408 C155.838664,34.209977 154.874643,34.8422702 153.79301,35.2976419 C152.707355,35.7540188 151.544297,35.9842178 150.336004,35.9842178 L147.909366,35.9842178 C146.700067,35.9842178 145.53701,35.7540188 144.451355,35.2976419 C143.368716,34.8422702 142.405701,34.209977 141.586434,33.4158408 C140.768172,32.6217047 140.105722,31.6838199 139.618182,30.626312 C139.126622,29.5597571 138.877324,28.4027309 138.877324,27.1884063 L138.877324,24.5647414 L142.922392,24.5647414 L142.922392,27.1884063 C142.922392,27.8649298 143.060109,28.5022492 143.333533,29.0832754 C143.611983,29.6763644 143.991962,30.2041131 144.462413,30.6534534 C144.933868,31.1027937 145.487753,31.4616628 146.109994,31.7190031 C146.729219,31.9753382 147.389659,32.1050136 148.074224,32.1050136 L150.194266,32.1050136 C150.877826,32.1050136 151.53324,31.9753382 152.143418,31.7200084 C152.759627,31.4616628 153.310496,31.103799 153.780947,30.6534534 C154.252402,30.2041131 154.632381,29.6763644 154.909826,29.0832754 C155.184256,28.5022492 155.322978,27.8649298 155.322978,27.1884063 L155.322978,26.1751288 C155.322978,25.1095791 155.1159,24.2209508 154.708779,23.5333696 C154.291606,22.8276942 153.728674,22.2175162 153.034057,21.7189194 C152.316318,21.2032335 151.49303,20.7599246 150.586308,20.399045 C149.638371,20.0230869 148.664297,19.648134 147.661072,19.2721759 C146.647795,18.8911916 145.647585,18.4649717 144.68658,18.0055791 C143.697428,17.5311079 142.797743,16.929977 142.010643,16.2172649 C141.20947,15.4904796 140.559083,14.591799 140.07858,13.5453487 C139.594057,12.4938723 139.348779,11.1941026 139.348779,9.68323351 L139.348779,9.04691937 C139.348779,7.83762094 139.579983,6.68461571 140.03636,5.62107644 C140.492737,4.56155812 141.126036,3.62065759 141.922182,2.82551623 C142.718329,2.02936963 143.66325,1.39506597 144.730811,0.939694241 C145.802392,0.483317277 146.958413,0.251107853 148.167711,0.251107853 L150.336004,0.251107853 C151.545303,0.251107853 152.697303,0.483317277 153.761847,0.939694241 C154.821366,1.39506597 155.761261,2.02936963 156.557407,2.82551623 C157.352549,3.62065759 157.986852,4.56155812 158.442224,5.62107644 C158.899606,6.68461571 159.131816,7.83762094 159.131816,9.04691937 L159.131816,11.200134 L155.086748,11.200134 L155.086748,9.04691937 C155.086748,8.36637487 154.958078,7.72402932 154.703753,7.13797696 C154.447418,6.54790366 154.095585,6.02518115 153.655292,5.58589319 C153.216004,5.1456 152.693282,4.7927623 152.102203,4.53642723 C151.517156,4.28310785 150.875816,4.1544377 150.194266,4.1544377 L148.309449,4.1544377 C147.6279,4.1544377 146.986559,4.28310785 146.400507,4.53743246 C145.809428,4.79376754 145.280674,5.14761047 144.833345,5.5889089 C144.38702,6.02719162 144.031167,6.5489089 143.774832,7.13797696 C143.521512,7.72402932 143.392842,8.36637487 143.392842,9.04691937 L143.392842,9.68323351 C143.392842,10.6673592 143.596905,11.4976838 144.00101,12.1520921 C144.418182,12.8276105 144.981114,13.4166785 145.675732,13.9001969 C146.395481,14.4028147 147.221784,14.8441131 148.132528,15.2140398 C149.082475,15.5980398 150.058559,15.9900817 151.06279,16.3901654 C152.077072,16.7942702 153.077282,17.2446157 154.036277,17.728134 C155.025428,18.2257257 155.923104,18.8479665 156.708193,19.5757571 C157.507355,20.3166157 158.157743,21.2303749 158.638245,22.2929089 Z M111.822413,0.722563351 L131.840674,0.722563351 L131.840674,4.62589319 L115.867481,4.62589319 L115.867481,16.1780607 L128.801847,16.1780607 L128.801847,20.0813906 L115.867481,20.0813906 L115.867481,31.6104377 L131.840674,31.6104377 L131.840674,35.5127623 L111.822413,35.5127623 L111.822413,0.722563351 Z M100.383837,0.722563351 L102.774287,0.722563351 L102.774287,35.5127623 L98.7302242,35.5127623 L98.7302242,11.200134 L91.4583498,23.2126995 L89.2910619,23.2126995 L81.9709362,11.2282806 L81.9709362,35.5127623 L77.9258682,35.5127623 L77.9258682,0.722563351 L80.293198,0.722563351 L90.3505802,17.5522178 L100.383837,0.722563351 Z" id="logo-type"></path>
            <polygon id="slash" points="443.389275 0.252113089 428.139868 35.9842178 432.898654 35.9842178 448.144081 0.252113089"></polygon>
            <path d="M9.46598702,4.29587435 L32.3222696,17.7027016 L51.5859603,4.29587435 L9.46598702,4.29587435 Z M36.1641516,19.9554346 L42.4014298,23.6154974 L51.1476922,9.52812565 L36.1641516,19.9554346 Z M8.05367825,8.15597906 L19.513986,26.6161257 L28.6673552,20.2469529 L8.05367825,8.15597906 Z M45.8904859,25.6611518 L56.008849,31.5960628 L56.008849,9.36427225 L45.8904859,25.6611518 Z M4.04392756,9.36427225 L4.04392756,37.382199 L16.1897831,28.9291728 L4.04392756,9.36427225 Z M21.6500402,30.0570471 L30.0263883,43.5473089 L40.2683912,27.0513927 L32.508232,22.4996859 L21.6500402,30.0570471 Z M30.0253831,47.8969634 C28.7166101,47.8969634 27.5113729,47.1641466 26.7172634,45.8854869 L26.7172634,45.8844817 L18.3258373,32.3700942 L5.65225072,41.1910366 C4.36559219,42.0867016 2.96434063,42.2555812 1.81338437,41.653445 C0.660417699,41.0513089 0,39.8068272 0,38.2376545 L0,5.28904712 C0,3.33084817 1.12281061,1.62998953 2.75927943,0.79765445 C3.25886481,0.48 3.98361544,0.252816754 5.0330463,0.251811518 L5.0340515,0.251811518 L5.03807231,0.251811518 L55.0147042,0.251811518 L55.0187251,0.251811518 L55.0197303,0.251811518 C55.9977918,0.252816754 56.6964072,0.457884817 57.1959925,0.748397906 C58.8847319,1.56263874 60.0527766,3.29164398 60.0527766,5.28904712 L60.0527766,32.1107435 C60.0527766,33.6457382 59.4044213,34.8982618 58.2725639,35.547644 C57.1397012,36.1950157 55.7294028,36.1216335 54.406557,35.3455916 L43.7564421,29.0980524 L33.334508,45.8844817 C32.5403984,47.1641466 31.3351613,47.8969634 30.0253831,47.8969634 Z" id="logo-mark"></path>
        </g>
    </g>
</svg>