<svg width="60" height="48" viewBox="0 0 60 48" xmlns="http://www.w3.org/2000/svg">
    <defs>
        <linearGradient x1="0%" y1="0%" y2="100%" id="a">
            <stop stop-color="#7D58FF" offset="0%"/>
            <stop stop-color="#FF007D" offset="100%"/>
        </linearGradient>
    </defs>
    <path d="M9.417 4.024L32.154 17.36 51.317 4.024h-41.9zm26.559 15.578l6.205 3.64 8.7-14.014-14.905 10.374zM8.012 7.863l11.4 18.364 9.106-6.335L8.012 7.864zm37.64 17.415l10.065 5.904V9.066L45.651 25.277zM4.021 9.066v27.871l12.083-8.408L4.023 9.066zM21.538 29.65l8.333 13.42 10.189-16.41-7.72-4.527-10.802 7.518zm8.332 17.748c-1.302 0-2.5-.73-3.29-2.002L18.23 31.95 5.623 40.727c-1.28.89-2.674 1.059-3.82.46C.658 40.587 0 39.35 0 37.788V5.01A5.014 5.014 0 0 1 2.745.543C3.242.227 3.963.001 5.007 0h49.726c.973.002 1.668.205 2.165.494a5.017 5.017 0 0 1 2.842 4.517v26.683c0 1.527-.645 2.773-1.77 3.418-1.128.645-2.53.572-3.847-.2L43.53 28.696 33.16 45.395c-.79 1.273-1.989 2.002-3.292 2.002z" fill="url(#a)" fill-rule="evenodd"/>
</svg>
