<?xml version="1.0" encoding="UTF-8"?>
<svg width="356px" height="48px" viewBox="0 0 356 48" version="1.1" xmlns="http://www.w3.org/2000/svg" xmlns:xlink="http://www.w3.org/1999/xlink">
    <!-- Generator: Sketch 48.2 (47327) - http://www.bohemiancoding.com/sketch -->
    <title>header--mesosphere-logo--monochromatic--inverse</title>
    <desc>Created with Sketch.</desc>
    <defs></defs>
    <g id="Page-1" stroke="none" stroke-width="1" fill="none" fill-rule="evenodd">
        <g id="header--mesosphere-logo--monochromatic--inverse" fill="#FFFFFF">
            <path d="M335.764983,0.4688 L355.679983,0.4688 L355.679983,4.3518 L339.788983,4.3518 L339.788983,15.8438 L352.655983,15.8438 L352.655983,19.7268 L339.788983,19.7268 L339.788983,31.1958 L355.679983,31.1958 L355.679983,35.0778 L335.764983,35.0778 L335.764983,0.4688 Z M322.147989,20.0498 C321.351989,20.3918 320.506989,20.6068 319.623989,20.6928 L328.766989,35.0778 L324.090989,35.0778 L314.973989,20.7348 L311.598989,20.7348 L311.598989,35.0778 L307.575989,35.0778 L307.575989,0.4688 L318.739989,0.4688 C319.942989,0.4688 321.090989,0.6988 322.147989,1.1538 C323.201989,1.6068 324.137989,2.2378 324.929989,3.0298 C325.721989,3.8218 326.351989,4.7608 326.805989,5.8228 C327.259989,6.8888 327.489989,8.0388 327.489989,9.2418 L327.489989,11.9608 C327.489989,13.1638 327.259989,14.3148 326.805989,15.3798 C326.351989,16.4418 325.721989,17.3818 324.929989,18.1738 C324.137989,18.9658 323.201989,19.5968 322.147989,20.0498 Z M311.598989,16.8518 L318.599989,16.8518 C319.276989,16.8518 319.915989,16.7238 320.497989,16.4708 C321.084989,16.2168 321.602989,15.8628 322.039989,15.4188 C322.477989,14.9728 322.830989,14.4478 323.085989,13.8598 C323.338989,13.2778 323.466989,12.6388 323.466989,11.9608 L323.466989,9.2418 C323.466989,8.5648 323.338989,7.9258 323.085989,7.3438 C322.830989,6.7548 322.477989,6.2308 322.039989,5.7838 C321.602989,5.3408 321.084989,4.9868 320.497989,4.7318 C319.915989,4.4798 319.276989,4.3518 318.599989,4.3518 L311.598989,4.3518 L311.598989,16.8518 Z M279.661989,0.4688 L299.575989,0.4688 L299.575989,4.3518 L283.684989,4.3518 L283.684989,15.8438 L296.552989,15.8438 L296.552989,19.7268 L283.684989,19.7268 L283.684989,31.1958 L299.575989,31.1958 L299.575989,35.0778 L279.661989,35.0778 L279.661989,0.4688 Z M266.638989,0.4688 L270.661989,0.4688 L270.661989,35.0778 L266.638989,35.0778 L266.638989,19.7268 L254.770989,19.7268 L254.770989,35.0778 L250.747989,35.0778 L250.747989,0.4688 L254.770989,0.4688 L254.770989,15.8438 L266.638989,15.8438 L266.638989,0.4688 Z M240.186989,3.0298 C240.978989,3.8218 241.609989,4.7608 242.062989,5.8228 C242.516989,6.8888 242.747989,8.0388 242.747989,9.2418 L242.747989,13.4138 C242.747989,14.6178 242.516989,15.7638 242.061989,16.8228 C241.608989,17.8768 240.977989,18.8128 240.186989,19.6038 C239.394989,20.3958 238.454989,21.0278 237.392989,21.4798 C236.327989,21.9338 235.177989,22.1638 233.973989,22.1638 L226.856989,22.1638 L226.856989,35.0778 L222.833989,35.0778 L222.833989,0.4688 L233.973989,0.4688 C235.177989,0.4688 236.327989,0.6988 237.392989,1.1538 C238.454989,1.6058 239.394989,2.2378 240.186989,3.0298 Z M238.723989,13.4138 L238.723989,9.2418 C238.723989,8.5648 238.596989,7.9258 238.343989,7.3438 C238.088989,6.7558 237.733989,6.2328 237.288989,5.7868 C236.843989,5.3418 236.319989,4.9868 235.731989,4.7318 C235.149989,4.4798 234.511989,4.3518 233.833989,4.3518 L226.856989,4.3518 L226.856989,18.2808 L233.833989,18.2808 C234.511989,18.2808 235.149989,18.1538 235.731989,17.9008 C236.320989,17.6458 236.845989,17.2938 237.291989,16.8548 C237.734989,16.4178 238.089989,15.8988 238.343989,15.3128 C238.596989,14.7308 238.723989,14.0918 238.723989,13.4138 Z M214.108989,21.9268 C214.589989,22.9878 214.833989,24.2868 214.833989,25.7888 L214.833989,26.7968 C214.833989,28.0048 214.585989,29.1558 214.096989,30.2168 C213.610989,31.2688 212.952989,32.2018 212.138989,32.9918 C211.323989,33.7818 210.364989,34.4108 209.288989,34.8638 C208.208989,35.3178 207.051989,35.5468 205.848989,35.5468 L203.434989,35.5468 C202.232989,35.5468 201.075989,35.3178 199.995989,34.8638 C198.918989,34.4108 197.960989,33.7818 197.144989,32.9918 C196.331989,32.2018 195.672989,31.2688 195.187989,30.2168 C194.698989,29.1558 194.450989,28.0048 194.450989,26.7968 L194.450989,24.1868 L198.473989,24.1868 L198.473989,26.7968 C198.473989,27.4688 198.611989,28.1038 198.883989,28.6818 C199.160989,29.2718 199.538989,29.7968 200.006989,30.2438 C200.474989,30.6908 201.026989,31.0478 201.645989,31.3038 C202.261989,31.5588 202.918989,31.6878 203.598989,31.6878 L205.708989,31.6878 C206.388989,31.6878 207.040989,31.5588 207.647989,31.3048 C208.260989,31.0478 208.807989,30.6918 209.276989,30.2438 C209.745989,29.7968 210.123989,29.2718 210.399989,28.6818 C210.672989,28.1038 210.809989,27.4698 210.809989,26.7968 L210.809989,25.7888 C210.809989,24.7288 210.604989,23.8448 210.199989,23.1608 C209.784989,22.4588 209.223989,21.8518 208.533989,21.3558 C207.819989,20.8428 207.000989,20.4018 206.098989,20.0428 C205.155989,19.6688 204.185989,19.2958 203.188989,18.9218 C202.180989,18.5428 201.184989,18.1188 200.229989,17.6618 C199.245989,17.1898 198.349989,16.5918 197.567989,15.8828 C196.770989,15.1598 196.124989,14.2658 195.644989,13.2248 C195.163989,12.1788 194.919989,10.8858 194.919989,9.3828 L194.919989,8.7498 C194.919989,7.5468 195.149989,6.3998 195.603989,5.3418 C196.056989,4.2878 196.687989,3.3518 197.479989,2.5608 C198.271989,1.7688 199.211989,1.1378 200.273989,0.6848 C201.339989,0.2308 202.489989,-0.0002 203.692989,-0.0002 L205.848989,-0.0002 C207.052989,-0.0002 208.198989,0.2308 209.257989,0.6848 C210.310989,1.1378 211.246989,1.7688 212.038989,2.5608 C212.829989,3.3518 213.460989,4.2878 213.913989,5.3418 C214.368989,6.3998 214.598989,7.5468 214.598989,8.7498 L214.598989,10.8918 L210.575989,10.8918 L210.575989,8.7498 C210.575989,8.0728 210.447989,7.4338 210.194989,6.8508 C209.939989,6.2638 209.589989,5.7438 209.151989,5.3068 C208.714989,4.8688 208.194989,4.5178 207.606989,4.2628 C207.024989,4.0108 206.386989,3.8828 205.708989,3.8828 L203.833989,3.8828 C203.155989,3.8828 202.516989,4.0108 201.933989,4.2628 C201.346989,4.5188 200.820989,4.8708 200.375989,5.3098 C199.931989,5.7458 199.577989,6.2648 199.322989,6.8508 C199.070989,7.4338 198.942989,8.0728 198.942989,8.7498 L198.942989,9.3828 C198.942989,10.3618 199.145989,11.1878 199.548989,11.8388 C199.962989,12.5108 200.522989,13.0968 201.213989,13.5778 C201.929989,14.0778 202.751989,14.5168 203.657989,14.8848 C204.601989,15.2668 205.573989,15.6568 206.572989,16.0548 C207.581989,16.4568 208.576989,16.9048 209.530989,17.3858 C210.514989,17.8808 211.407989,18.4988 212.188989,19.2238 C212.983989,19.9608 213.630989,20.8698 214.108989,21.9268 Z M183.890989,2.5608 C184.681989,3.3518 185.312989,4.2878 185.765989,5.3418 C186.220989,6.3998 186.450989,7.5468 186.450989,8.7498 L186.450989,26.7968 C186.450989,27.9998 186.220989,29.1478 185.765989,30.2048 C185.312989,31.2588 184.681989,32.1948 183.890989,32.9868 C183.098989,33.7788 182.162989,34.4088 181.108989,34.8618 C180.050989,35.3168 178.903989,35.5468 177.700989,35.5468 L175.309989,35.5468 C174.106989,35.5468 172.956989,35.3168 171.890989,34.8628 C170.828989,34.4088 169.889989,33.7788 169.097989,32.9868 C168.305989,32.1948 167.674989,31.2588 167.221989,30.2048 C166.766989,29.1478 166.536989,27.9998 166.536989,26.7968 L166.536989,8.7498 C166.536989,7.5468 166.766989,6.3998 167.221989,5.3418 C167.674989,4.2878 168.305989,3.3518 169.097989,2.5608 C169.889989,1.7688 170.828989,1.1378 171.890989,0.6848 C172.956989,0.2308 174.106989,-0.0002 175.309989,-0.0002 L177.700989,-0.0002 C178.903989,-0.0002 180.050989,0.2308 181.108989,0.6848 C182.162989,1.1378 183.098989,1.7688 183.890989,2.5608 Z M182.427989,26.7968 L182.427989,8.7498 C182.427989,8.0728 182.299989,7.4338 182.046989,6.8508 C181.791989,6.2638 181.440989,5.7438 181.003989,5.3068 C180.565989,4.8688 180.046989,4.5178 179.458989,4.2638 C178.876989,4.0108 178.237989,3.8828 177.559989,3.8828 L175.450989,3.8828 C174.772989,3.8828 174.134989,4.0108 173.551989,4.2638 C172.963989,4.5188 172.437989,4.8708 171.992989,5.3098 C171.548989,5.7458 171.194989,6.2648 170.939989,6.8508 C170.687989,7.4338 170.559989,8.0728 170.559989,8.7498 L170.559989,26.7968 C170.559989,27.4748 170.687989,28.1138 170.939989,28.6958 C171.194989,29.2828 171.550989,29.8068 171.995989,30.2518 C172.440989,30.6978 172.964989,31.0518 173.551989,31.3068 C174.134989,31.5598 174.772989,31.6878 175.450989,31.6878 L177.559989,31.6878 C178.237989,31.6878 178.876989,31.5598 179.458989,31.3068 C180.044989,31.0528 180.562989,30.6978 181.000989,30.2548 C181.438989,29.8088 181.791989,29.2838 182.046989,28.6958 C182.299989,28.1138 182.427989,27.4748 182.427989,26.7968 Z M157.811989,21.9268 C158.292989,22.9878 158.536989,24.2868 158.536989,25.7888 L158.536989,26.7968 C158.536989,28.0048 158.288989,29.1558 157.799989,30.2168 C157.313989,31.2688 156.655989,32.2018 155.841989,32.9918 C155.026989,33.7818 154.067989,34.4108 152.991989,34.8638 C151.911989,35.3178 150.754989,35.5468 149.552989,35.5468 L147.138989,35.5468 C145.935989,35.5468 144.778989,35.3178 143.698989,34.8638 C142.621989,34.4108 141.663989,33.7818 140.848989,32.9918 C140.034989,32.2018 139.375989,31.2688 138.890989,30.2168 C138.401989,29.1558 138.153989,28.0048 138.153989,26.7968 L138.153989,24.1868 L142.177989,24.1868 L142.177989,26.7968 C142.177989,27.4698 142.314989,28.1038 142.586989,28.6818 C142.863989,29.2718 143.241989,29.7968 143.709989,30.2438 C144.178989,30.6908 144.729989,31.0478 145.348989,31.3038 C145.964989,31.5588 146.621989,31.6878 147.302989,31.6878 L149.411989,31.6878 C150.091989,31.6878 150.743989,31.5588 151.350989,31.3048 C151.963989,31.0478 152.511989,30.6918 152.979989,30.2438 C153.448989,29.7968 153.826989,29.2718 154.102989,28.6818 C154.375989,28.1038 154.513989,27.4698 154.513989,26.7968 L154.513989,25.7888 C154.513989,24.7288 154.307989,23.8448 153.902989,23.1608 C153.487989,22.4588 152.927989,21.8518 152.236989,21.3558 C151.522989,20.8428 150.703989,20.4018 149.801989,20.0428 C148.858989,19.6688 147.889989,19.2958 146.891989,18.9218 C145.883989,18.5428 144.888989,18.1188 143.932989,17.6618 C142.948989,17.1898 142.053989,16.5918 141.270989,15.8828 C140.473989,15.1598 139.826989,14.2658 139.348989,13.2248 C138.866989,12.1788 138.622989,10.8858 138.622989,9.3828 L138.622989,8.7498 C138.622989,7.5468 138.852989,6.3998 139.306989,5.3418 C139.760989,4.2878 140.390989,3.3518 141.182989,2.5608 C141.974989,1.7688 142.914989,1.1378 143.976989,0.6848 C145.042989,0.2308 146.192989,-0.0002 147.395989,-0.0002 L149.552989,-0.0002 C150.755989,-0.0002 151.901989,0.2308 152.960989,0.6848 C154.014989,1.1378 154.949989,1.7688 155.741989,2.5608 C156.532989,3.3518 157.163989,4.2878 157.616989,5.3418 C158.071989,6.3998 158.302989,7.5468 158.302989,8.7498 L158.302989,10.8918 L154.278989,10.8918 L154.278989,8.7498 C154.278989,8.0728 154.150989,7.4338 153.897989,6.8508 C153.642989,6.2638 153.292989,5.7438 152.854989,5.3068 C152.417989,4.8688 151.897989,4.5178 151.309989,4.2628 C150.727989,4.0108 150.089989,3.8828 149.411989,3.8828 L147.536989,3.8828 C146.858989,3.8828 146.220989,4.0108 145.637989,4.2638 C145.049989,4.5188 144.523989,4.8708 144.078989,5.3098 C143.634989,5.7458 143.280989,6.2648 143.025989,6.8508 C142.773989,7.4338 142.645989,8.0728 142.645989,8.7498 L142.645989,9.3828 C142.645989,10.3618 142.848989,11.1878 143.250989,11.8388 C143.665989,12.5108 144.225989,13.0968 144.916989,13.5778 C145.632989,14.0778 146.454989,14.5168 147.360989,14.8848 C148.305989,15.2668 149.276989,15.6568 150.275989,16.0548 C151.284989,16.4568 152.279989,16.9048 153.233989,17.3858 C154.217989,17.8808 155.110989,18.4998 155.891989,19.2238 C156.686989,19.9608 157.333989,20.8698 157.811989,21.9268 Z M111.239989,0.4688 L131.153989,0.4688 L131.153989,4.3518 L115.263989,4.3518 L115.263989,15.8438 L128.130989,15.8438 L128.130989,19.7268 L115.263989,19.7268 L115.263989,31.1958 L131.153989,31.1958 L131.153989,35.0778 L111.239989,35.0778 L111.239989,0.4688 Z M99.860989,0.4688 L102.238989,0.4688 L102.238989,35.0778 L98.215989,35.0778 L98.215989,10.8918 L90.981989,22.8418 L88.825989,22.8418 L81.543989,10.9198 L81.543989,35.0778 L77.519989,35.0778 L77.519989,0.4688 L79.874989,0.4688 L89.879989,17.2108 L99.860989,0.4688 Z" id="header-logo-type-monochromatic-inverse"></path>
            <path d="M9.41668501,4.0235 L32.1539244,17.3605 L51.3172834,4.0235 L9.41668501,4.0235 Z M35.9757966,19.6015 L42.180589,23.2425 L50.881298,9.2285 L35.9757966,19.6015 Z M8.01173201,7.8635 L19.4123507,26.2275 L28.5180461,19.8915 L8.01173201,7.8635 Z M45.6514729,25.2775 L55.7171362,31.1815 L55.7171362,9.0655 L45.6514729,25.2775 Z M4.02286543,9.0655 L4.02286543,36.9375 L16.1054613,28.5285 L4.02286543,9.0655 Z M21.5372796,29.6505 L29.8700008,43.0705 L40.05866,26.6605 L32.3389183,22.1325 L21.5372796,29.6505 Z M29.8690009,47.3975 C28.5670444,47.3975 27.3680845,46.6685 26.578111,45.3965 L26.578111,45.3955 L18.2303902,31.9515 L5.62281192,40.7265 C4.34285473,41.6175 2.94890136,41.7855 1.80393966,41.1865 C0.656978024,40.5875 0,39.3495 0,37.7885 L0,5.0115 C0,3.0635 1.11696264,1.3715 2.74490818,0.5435 C3.24189156,0.2275 3.96286744,0.0015 5.00683252,0.0005 L5.00783249,0.0005 L5.01183235,0.0005 L54.7281693,0.0005 L54.7321692,0.0005 L54.7331692,0.0005 C55.7061366,0.0015 56.4011134,0.2055 56.8980967,0.4945 C58.5780405,1.3045 59.7400017,3.0245 59.7400017,5.0115 L59.7400017,31.6935 C59.7400017,33.2205 59.0950233,34.4665 57.9690609,35.1125 C56.8420986,35.7565 55.4391455,35.6835 54.1231896,34.9115 L43.528544,28.6965 L33.1608908,45.3955 C32.3709172,46.6685 31.1719573,47.3975 29.8690009,47.3975 Z" id="header-logo-mark-monochromatic-inverse"></path>
        </g>
    </g>
</svg>