<?xml version="1.0" encoding="utf-8"?>
<!-- Generator: Adobe Illustrator 21.1.0, SVG Export Plug-In . SVG Version: 6.00 Build 0)  -->
<svg version="1.1" id="Layer_1" xmlns="http://www.w3.org/2000/svg" xmlns:xlink="http://www.w3.org/1999/xlink" x="0px" y="0px"
	 width="210px" height="54px" viewBox="0 0 210 54" style="enable-background:new 0 0 210 54;" xml:space="preserve">
<style type="text/css">
	.st0{fill:url(#SVGID_1_);}
	.st1{fill:url(#SVGID_2_);}
	.st2{fill:#FFFFFF;}
</style>
<linearGradient id="SVGID_1_" gradientUnits="userSpaceOnUse" x1="141.3689" y1="20.5833" x2="159.4295" y2="20.5833">
	<stop  offset="4.254332e-04" style="stop-color:#7D58FF"/>
	<stop  offset="1" style="stop-color:#FF007D"/>
</linearGradient>
<path class="st0" d="M141.4,40l12.4-36.4c0.5-1.4,1.8-2.4,3.4-2.4h2.3L147,37.6c-0.5,1.4-1.8,2.4-3.4,2.4H141.4z"/>
<linearGradient id="SVGID_2_" gradientUnits="userSpaceOnUse" x1="1.6325" y1="28.4608" x2="69.6337" y2="28.4608">
	<stop  offset="0" style="stop-color:#7D58FF"/>
	<stop  offset="1" style="stop-color:#FF007D"/>
</linearGradient>
<path class="st1" d="M67.1,4c-0.5-0.3-1.2-0.5-2.1-0.5H6.2C5.6,3.5,4.7,3.6,4,4.1c-1.5,0.8-2.4,2.3-2.4,4v34.1
	c0,2.4,1.6,3.5,3.1,3.5c0.7,0,1.4-0.2,2-0.6l15.1-9.3l10.8,15.9c0.7,1.1,1.9,1.7,3,1.7c1.2,0,2.3-0.6,3-1.7l13.7-20.2l12.2,6
	c1.6,0.8,3.2,0.5,4.2-0.7c0.5-0.6,0.8-1.5,0.8-2.5V8.1C69.6,6.4,68.6,4.8,67.1,4z M19.9,32.8l-14.7,9V11.1L19.9,32.8z M61.8,11.1
	L51.1,26.9l-8.3-4.1L61.8,11.1z M11,7.1h50.6L39.1,20.9L11,7.1z M49.1,29.8L35.7,49.7c0,0.1-0.1,0.1-0.1,0.1c0,0-0.1-0.1-0.1-0.1
	L24.9,33.9L39.3,25L49.1,29.8z M35.6,23.1L22.9,31L8.6,9.9L35.6,23.1z M66.1,11.1v23.1l-11.7-5.8L66.1,11.1z"/>
<g>
	<path class="st2" d="M90.2,3.9h12c5.4,0,9.6,4.1,9.6,9.5v13.9c0,5.4-4.2,9.5-9.6,9.5h-12V3.9z M102.1,31.2c2.2,0,3.8-1.7,3.8-3.9
		V13.4c0-2.2-1.6-3.9-3.8-3.9h-5.9v21.7H102.1z"/>
	<path class="st2" d="M133.6,25.5h5.9v2.3c0,5.4-4.2,9.5-9.6,9.5h-2.4c-5.4,0-9.6-4.1-9.6-9.5V12.9c0-5.4,4.2-9.5,9.6-9.5h2.4
		c5.4,0,9.6,4.1,9.6,9.5v2.3h-5.9v-2.3c0-2.2-1.6-3.9-3.8-3.9h-2.2c-2.2,0-3.8,1.7-3.8,3.9v14.9c0,2.2,1.6,3.9,3.8,3.9h2.2
		c2.2,0,3.8-1.7,3.8-3.9V25.5z"/>
	<g>
		<path class="st2" d="M181.5,27.8c0,5.4-4.2,9.5-9.6,9.5h-2.4c-5.4,0-9.6-4.1-9.6-9.5V12.9c0-5.4,4.2-9.5,9.6-9.5h2.4
			c5.4,0,9.6,4.1,9.6,9.5V27.8z M165.9,27.8c0,2.2,1.6,3.9,3.8,3.9h2.2c2.2,0,3.8-1.7,3.8-3.9V12.9c0-2.2-1.6-3.9-3.8-3.9h-2.2
			c-2.2,0-3.8,1.7-3.8,3.9V27.8z"/>
		<path class="st2" d="M187.9,12.9c0-5.4,4.2-9.5,9.6-9.5h1.6c5.4,0,9.6,4.1,9.6,9.5v1.6h-5.9v-1.6c0-2.2-1.6-3.9-3.8-3.9h-1.5
			c-2.2,0-3.8,1.7-3.8,3.9v0.3c0,6.6,15.2,1.9,15.2,14.2v0.4c0,5.4-4.2,9.5-9.6,9.5h-2.1c-5.4,0-9.6-4.1-9.6-9.5v-1.6h5.9v1.6
			c0,2.2,1.6,3.9,3.8,3.9h1.9c2.2,0,3.8-1.7,3.8-3.9v-0.4c0-7-15.2-1.5-15.2-14.2V12.9z"/>
	</g>
</g>
</svg>
