<?xml version="1.0" encoding="utf-8"?>
<!-- Generator: Adobe Illustrator 21.1.0, SVG Export Plug-In . SVG Version: 6.00 Build 0)  -->
<svg version="1.1" id="Layer_1" xmlns="http://www.w3.org/2000/svg" xmlns:xlink="http://www.w3.org/1999/xlink" x="0px" y="0px"
	 viewBox="0 0 1095 120" style="enable-background:new 0 0 1095 120;" xml:space="preserve">
<style type="text/css">
	.st0{fill:#FFFFFF;}
	.st1{fill:url(#SVGID_1_);}
	.st2{fill:url(#SVGID_2_);}
</style>
<g>
	<polygon class="st0" points="785.5,16.1 785.5,8.6 745,8.6 745,79.4 785.5,79.4 785.5,71.9 752.8,71.9 752.8,47.8 779.3,47.8 
		779.3,40.3 752.8,40.3 752.8,16.1 	"/>
	<path class="st0" d="M714.1,48.5c2.1-0.9,4.1-2.2,5.7-3.8c1.6-1.6,2.9-3.5,3.8-5.7c0.9-2.2,1.4-4.5,1.4-7v-5.6c0-2.4-0.5-4.8-1.4-7
		s-2.2-4.1-3.8-5.7s-3.5-2.9-5.7-3.8c-2.1-0.9-4.5-1.4-6.9-1.4h-22.8v70.9h7.8V49.8h7.3l18.8,29.6h9l-18.8-29.6
		C710.5,49.7,712.4,49.2,714.1,48.5z M710.9,41.5c-1.2,0.5-2.6,0.8-4,0.8h-14.7V16h14.7c1.4,0,2.8,0.3,4,0.8s2.3,1.3,3.3,2.2
		c0.9,0.9,1.7,2,2.2,3.3c0.5,1.2,0.8,2.6,0.8,4v5.6c0,1.4-0.3,2.8-0.8,4s-1.3,2.4-2.2,3.3C713.2,40.2,712.1,41,710.9,41.5z"/>
	<polygon class="st0" points="625.7,79.4 666.3,79.4 666.3,71.9 633.5,71.9 633.5,47.8 660,47.8 660,40.3 633.5,40.3 633.5,16.1 
		666.3,16.1 666.3,8.6 625.7,8.6 	"/>
	<polygon class="st0" points="594.8,40.3 569.9,40.3 569.9,8.6 562.1,8.6 562.1,79.4 569.9,79.4 569.9,47.8 594.8,47.8 594.8,79.4 
		602.6,79.4 602.6,8.6 594.8,8.6 	"/>
	<path class="st0" d="M538.6,13.8c-1.6-1.6-3.5-2.9-5.7-3.8s-4.5-1.4-6.9-1.4h-22.7v70.9h7.8V52.9H526c2.4,0,4.8-0.5,6.9-1.4
		c2.2-0.9,4.1-2.2,5.7-3.8c1.6-1.6,2.9-3.5,3.8-5.7c0.9-2.1,1.4-4.5,1.4-6.9v-8.6c0-2.4-0.5-4.8-1.4-7
		C541.5,17.3,540.2,15.4,538.6,13.8z M536,26.4V35c0,1.4-0.3,2.8-0.8,4s-1.3,2.3-2.2,3.3c-0.9,0.9-2.1,1.7-3.3,2.2s-2.6,0.8-4,0.8
		h-14.6V16.1h14.6c1.4,0,2.8,0.3,4,0.8s2.3,1.3,3.3,2.2c0.9,0.9,1.7,2,2.2,3.3C535.8,23.6,536,25,536,26.4z"/>
	<path class="st0" d="M478.2,47.2c-1.6-1.5-3.4-2.7-5.4-3.8c-1.9-1-4-1.9-6.1-2.7c-2.1-0.8-4.1-1.6-6-2.4s-3.6-1.7-5.1-2.7
		s-2.6-2.2-3.5-3.7c-0.9-1.4-1.3-3.1-1.3-5.2v-1.3c0-1.4,0.3-2.8,0.8-4s1.3-2.3,2.2-3.3c0.9-0.9,2-1.7,3.3-2.2
		c1.2-0.5,2.6-0.8,4-0.8h3.9c1.4,0,2.8,0.3,4,0.8s2.3,1.3,3.3,2.2c0.9,0.9,1.7,2,2.2,3.3c0.5,1.2,0.8,2.6,0.8,4V29l7.8,0.1v-3.6
		c0-2.5-0.5-4.8-1.4-6.9s-2.2-4.1-3.8-5.7s-3.5-2.9-5.7-3.8c-2.1-0.9-4.5-1.4-6.9-1.4h-4.4c-2.4,0-4.8,0.5-7,1.4s-4.1,2.2-5.7,3.8
		c-1.6,1.6-2.9,3.5-3.8,5.7c-0.9,2.1-1.4,4.5-1.4,6.9v1.3c0,3.1,0.5,5.7,1.5,7.8c1,2.1,2.3,3.9,3.9,5.4c1.6,1.4,3.4,2.7,5.4,3.6
		c1.9,0.9,4,1.8,6.1,2.6c2.1,0.8,4.1,1.5,6,2.3c1.9,0.7,3.6,1.7,5.1,2.7c1.4,1,2.6,2.3,3.5,3.8c0.9,1.4,1.3,3.3,1.3,5.5v2.1
		c0,1.4-0.3,2.8-0.9,4c-0.6,1.2-1.4,2.3-2.4,3.3c-1,0.9-2.2,1.7-3.4,2.2c-1.3,0.5-2.7,0.8-4.1,0.8h-4.3c-1.4,0-2.8-0.3-4.1-0.8
		s-2.5-1.3-3.5-2.2c-1-1-1.8-2.1-2.4-3.3c-0.6-1.2-0.9-2.6-0.9-4v-4.5H442v4.6c0,2.5,0.5,4.8,1.5,6.9s2.3,4,4,5.6s3.6,2.9,5.8,3.8
		s4.5,1.4,7,1.4h5c2.4,0,4.8-0.5,7-1.4s4.1-2.2,5.8-3.8c1.7-1.6,3-3.5,4-5.6c1-2.2,1.5-4.5,1.5-6.9v-2.1c0-3.1-0.5-5.7-1.5-7.9
		C481.1,50.5,479.8,48.7,478.2,47.2z"/>
	<path class="st0" d="M418.4,12.8c-1.6-1.6-3.5-2.9-5.7-3.8c-2.1-0.9-4.5-1.4-6.9-1.4h-4.9c-2.4,0-4.8,0.5-7,1.4s-4.1,2.2-5.7,3.8
		c-1.6,1.6-2.9,3.5-3.8,5.7c-0.9,2.1-1.4,4.5-1.4,6.9v37.2c0,2.5,0.5,4.8,1.4,6.9s2.2,4,3.8,5.7c1.6,1.6,3.5,2.9,5.7,3.8
		s4.5,1.4,7,1.4h4.9c2.4,0,4.8-0.5,6.9-1.4s4.1-2.2,5.7-3.8c1.6-1.6,2.9-3.5,3.8-5.7c0.9-2.1,1.4-4.5,1.4-6.9V25.4
		c0-2.5-0.5-4.8-1.4-6.9C421.3,16.3,420,14.4,418.4,12.8z M415.9,25.4v37.2c0,1.4-0.3,2.8-0.8,4s-1.3,2.3-2.2,3.3
		c-0.9,0.9-2,1.7-3.3,2.2c-1.2,0.5-2.6,0.8-4,0.8h-4.3c-1.4,0-2.8-0.3-4-0.8s-2.3-1.3-3.3-2.2c-0.9-0.9-1.7-2.1-2.2-3.3
		c-0.5-1.2-0.8-2.6-0.8-4V25.4c0-1.4,0.3-2.8,0.8-4s1.3-2.3,2.2-3.3c0.9-0.9,2-1.7,3.3-2.2c1.2-0.5,2.6-0.8,4-0.8h4.3
		c1.4,0,2.8,0.3,4,0.8s2.3,1.3,3.3,2.2c0.9,0.9,1.7,2,2.2,3.3C415.6,22.6,415.9,24,415.9,25.4z"/>
	<path class="st0" d="M359,47.2c-1.6-1.5-3.4-2.7-5.4-3.8c-1.9-1-4-1.9-6.1-2.7c-2.1-0.8-4.1-1.6-6-2.4s-3.6-1.7-5.1-2.7
		s-2.6-2.2-3.5-3.7c-0.9-1.4-1.3-3.1-1.3-5.2v-1.3c0-1.4,0.3-2.8,0.8-4s1.3-2.3,2.2-3.3c0.9-0.9,2-1.7,3.3-2.2
		c1.2-0.5,2.6-0.8,4-0.8h3.9c1.4,0,2.8,0.3,4,0.8s2.3,1.3,3.3,2.2c0.9,0.9,1.7,2,2.2,3.3c0.5,1.2,0.8,2.6,0.8,4V29l7.8,0.1v-3.6
		c0-2.5-0.5-4.8-1.4-6.9s-2.2-4.1-3.8-5.7c-1.6-1.6-3.5-2.9-5.7-3.8c-2.1-0.9-4.5-1.4-6.9-1.4h-4.4c-2.4,0-4.8,0.5-7,1.4
		s-4.1,2.2-5.7,3.8c-1.6,1.6-2.9,3.5-3.8,5.7c-0.9,2.1-1.4,4.5-1.4,6.9v1.3c0,3.1,0.5,5.7,1.5,7.8c1,2.1,2.3,3.9,3.9,5.4
		c1.6,1.4,3.4,2.7,5.4,3.6s4,1.8,6.1,2.6c2.1,0.8,4.1,1.5,6,2.3c1.9,0.7,3.6,1.7,5.1,2.7c1.4,1,2.6,2.3,3.5,3.8
		c0.9,1.4,1.3,3.3,1.3,5.5v2.1c0,1.4-0.3,2.8-0.9,4s-1.4,2.3-2.4,3.3c-1,0.9-2.2,1.7-3.4,2.2c-1.3,0.5-2.7,0.8-4.1,0.8h-4.3
		c-1.4,0-2.8-0.3-4.1-0.8c-1.3-0.5-2.5-1.3-3.5-2.2c-1-1-1.8-2.1-2.4-3.3c-0.6-1.2-0.9-2.6-0.9-4v-4.5h-7.8v4.6
		c0,2.5,0.5,4.8,1.5,6.9s2.3,4,4,5.6s3.6,2.9,5.8,3.8c2.2,0.9,4.5,1.4,7,1.4h5c2.4,0,4.8-0.5,7-1.4s4.1-2.2,5.8-3.8
		c1.7-1.6,3-3.5,4-5.6c1-2.2,1.5-4.5,1.5-6.9v-2.1c0-3.1-0.5-5.7-1.5-7.9S360.6,48.7,359,47.2z"/>
	<polygon class="st0" points="266.9,79.4 307.5,79.4 307.5,71.9 274.7,71.9 274.7,47.8 301.2,47.8 301.2,40.3 274.7,40.3 
		274.7,16.1 307.5,16.1 307.5,8.6 266.9,8.6 	"/>
	<polygon class="st0" points="221.5,47.9 202,8.6 197,8.6 197,79.4 204.6,79.4 204.6,29.2 219.5,59 223.6,59 238.4,29.3 238.4,79.4 
		246,79.4 246,8.6 240.9,8.6 	"/>
</g>
<linearGradient id="SVGID_1_" gradientUnits="userSpaceOnUse" x1="7" y1="58.75" x2="151" y2="58.75" gradientTransform="matrix(1 0 0 -1 0 120)">
	<stop  offset="4.254332e-04" style="stop-color:#7D58FF"/>
	<stop  offset="1" style="stop-color:#FF007D"/>
</linearGradient>
<path class="st1" d="M145.7,9.6c-1.1-0.7-2.5-1-4.4-1.1H16.7c-1.3,0-3.2,0.1-4.6,1.1c-3.2,1.7-5.1,5-5.1,8.5v72.2
	c0,5,3.4,7.3,6.5,7.3c1.4,0,2.9-0.4,4.3-1.3l32-19.7l22.8,33.7c1.6,2.3,3.9,3.7,6.4,3.7s4.8-1.3,6.4-3.7l29-42.8l25.9,12.7
	c3.3,1.6,6.9,1,8.9-1.4c1.2-1.4,1.8-3.2,1.8-5.3V18.1C151,14.6,148.9,11.2,145.7,9.6z M45.6,70.5L14.5,89.7V24.6L45.6,70.5z
	 M134.4,24.6L111.9,58l-17.5-8.6L134.4,24.6z M26.9,16.1h107.2L86.5,45.4L26.9,16.1z M107.7,64.2l-28.4,42c-0.1,0.1-0.2,0.2-0.2,0.3
	c-0.1-0.1-0.1-0.2-0.2-0.3L56.3,72.8L86.9,54L107.7,64.2z M78.9,50.1L52,66.6L21.8,21.9L78.9,50.1z M143.5,24.5v49l-24.9-12.3
	L143.5,24.5z"/>
<g>
	
		<linearGradient id="SVGID_2_" gradientUnits="userSpaceOnUse" x1="940.9" y1="76.05" x2="978.8763" y2="76.05" gradientTransform="matrix(1 0 0 -1 0 120)">
		<stop  offset="4.254332e-04" style="stop-color:#7D58FF"/>
		<stop  offset="1" style="stop-color:#FF007D"/>
	</linearGradient>
	<path class="st2" d="M940.9,84.8l26-76.6c1-3,3.9-5.1,7.1-5.1h4.8l-26,76.6c-1,3-3.9,5.1-7.1,5.1H940.9z"/>
	<path class="st0" d="M833.8,9.2h25.3c11.5,0,20.4,8.7,20.4,20.2v29.5c0,11.5-8.9,20.2-20.4,20.2h-25.3V9.2z M858.9,67.1
		c4.6,0,8-3.6,8-8.2V29.4c0-4.6-3.4-8.2-8-8.2h-12.6v45.9L858.9,67.1L858.9,67.1z"/>
	<path class="st0" d="M925.6,55.1h12.6v4.8c0,11.5-8.9,20.2-20.4,20.2h-5c-11.5,0-20.4-8.7-20.4-20.2V28.4
		c0-11.5,8.9-20.2,20.4-20.2h5c11.5,0,20.4,8.7,20.4,20.2v4.8h-12.6v-4.8c0-4.6-3.4-8.2-8-8.2H913c-4.6,0-8,3.6-8,8.2v31.5
		c0,4.6,3.4,8.2,8,8.2h4.6c4.6,0,8-3.6,8-8.2V55.1z"/>
	<g>
		<path class="st0" d="M1027.2,59.9c0,11.5-8.9,20.2-20.4,20.2h-5c-11.5,0-20.4-8.7-20.4-20.2V28.4c0-11.5,8.9-20.2,20.4-20.2h5
			c11.5,0,20.4,8.7,20.4,20.2V59.9z M994.1,59.9c0,4.6,3.4,8.2,8,8.2h4.6c4.6,0,8-3.6,8-8.2V28.4c0-4.6-3.4-8.2-8-8.2h-4.6
			c-4.6,0-8,3.6-8,8.2V59.9z"/>
		<path class="st0" d="M1040.7,28.4c0-11.5,8.9-20.2,20.4-20.2h3.5c11.5,0,20.4,8.7,20.4,20.2v3.5h-12.6v-3.5c0-4.6-3.4-8.2-8-8.2
			h-3.1c-4.6,0-8,3.6-8,8.2V29c0,14.1,32.1,4.1,32.1,30v0.9c0,11.5-8.9,20.2-20.4,20.2h-4.5c-11.5,0-20.4-8.7-20.4-20.2v-3.5h12.6
			v3.5c0,4.6,3.4,8.2,8,8.2h4.1c4.6,0,8-3.6,8-8.2V59c0-14.9-32.1-3.1-32.1-30V28.4z"/>
	</g>
</g>
</svg>
