<?xml version="1.0" encoding="utf-8"?>
<!-- Generator: Adobe Illustrator 21.1.0, SVG Export Plug-In . SVG Version: 6.00 Build 0)  -->
<svg version="1.1" id="Layer_1" xmlns="http://www.w3.org/2000/svg" xmlns:xlink="http://www.w3.org/1999/xlink" x="0px" y="0px"
	 viewBox="0 0 950 130" style="enable-background:new 0 0 948.6 129.4;" xml:space="preserve"
	>
<style type="text/css">
	.st0{fill:#11161F;}
	.st1{fill:url(#SVGID_1_);}
</style>
<g>
	<polygon class="st0" points="947.8,10.2 947.8,1.1 898.5,1.1 898.5,87.3 947.8,87.3 947.8,78.2 907.9,78.2 907.9,48.8 940.2,48.8
		940.2,39.7 907.9,39.7 907.9,10.2 	"/>
	<path class="st0" d="M860.9,49.6c2.6-1.1,4.9-2.7,6.9-4.6c2-2,3.5-4.3,4.6-6.9s1.7-5.5,1.7-8.5v-6.8c0-3-0.6-5.8-1.7-8.5
		c-1.1-2.6-2.7-5-4.6-6.9c-2-2-4.3-3.5-6.9-4.6c-2.6-1.1-5.5-1.7-8.4-1.7h-27.7v86.2h9.5v-36h8.9l22.9,36h11l-22.9-36
		C856.5,51.1,858.8,50.5,860.9,49.6z M857,41.2c-1.5,0.6-3.1,1-4.9,1h-17.9v-32h17.9c1.7,0,3.4,0.3,4.9,1s2.8,1.6,4,2.7
		c1.1,1.1,2,2.5,2.7,4c0.6,1.5,1,3.1,1,4.9v6.8c0,1.7-0.3,3.4-1,4.9s-1.6,2.9-2.7,4C859.8,39.6,858.5,40.5,857,41.2z"/>
	<polygon class="st0" points="753.4,87.3 802.7,87.3 802.7,78.2 762.9,78.2 762.9,48.8 795.1,48.8 795.1,39.7 762.9,39.7
		762.9,10.2 802.7,10.2 802.7,1.1 753.4,1.1 	"/>
	<polygon class="st0" points="715.8,39.7 685.4,39.7 685.4,1.1 676,1.1 676,87.3 685.4,87.3 685.4,48.8 715.8,48.8 715.8,87.3
		725.3,87.3 725.3,1.1 715.8,1.1 	"/>
	<path class="st0" d="M647.4,7.4c-2-2-4.3-3.5-6.9-4.6c-2.6-1.1-5.5-1.7-8.5-1.7h-27.6v86.2h9.5V54.9h18.2c3,0,5.8-0.6,8.5-1.7
		c2.6-1.1,5-2.7,6.9-4.6c2-2,3.5-4.3,4.6-6.9s1.7-5.5,1.7-8.4V22.8c0-3-0.6-5.8-1.7-8.5C651,11.7,649.4,9.4,647.4,7.4z M644.3,22.8
		v10.5c0,1.7-0.3,3.4-1,4.9s-1.6,2.8-2.7,4c-1.2,1.1-2.5,2-4,2.7c-1.5,0.6-3.1,1-4.9,1h-17.8V10.4h17.8c1.7,0,3.4,0.3,4.9,1
		s2.9,1.6,4,2.7s2.1,2.5,2.7,4C644,19.4,644.3,21,644.3,22.8z"/>
	<path class="st0" d="M573.9,48c-1.9-1.8-4.2-3.3-6.6-4.6c-2.4-1.2-4.9-2.3-7.4-3.3s-4.9-2-7.3-2.9c-2.3-0.9-4.4-2-6.2-3.3
		c-1.8-1.2-3.2-2.7-4.3-4.5c-1-1.7-1.6-3.8-1.6-6.3v-1.6c0-1.7,0.3-3.4,1-4.9s1.6-2.8,2.7-4c1.1-1.1,2.5-2,4-2.7
		c1.5-0.6,3.1-1,4.9-1h4.7c1.7,0,3.4,0.3,4.9,1s2.8,1.6,4,2.7c1.1,1.1,2,2.5,2.7,4c0.6,1.5,1,3.1,1,4.9v4.4l9.5,0.1v-4.4
		c0-3-0.6-5.8-1.7-8.4c-1.1-2.6-2.7-4.9-4.6-6.9c-2-2-4.3-3.5-6.9-4.6c-2.6-1.1-5.4-1.7-8.4-1.7h-5.5c-3,0-5.8,0.6-8.5,1.7
		c-2.6,1.1-5,2.7-6.9,4.6c-2,2-3.5,4.3-4.6,6.9s-1.7,5.4-1.7,8.4v1.6c0,3.7,0.6,6.9,1.8,9.5s2.8,4.8,4.8,6.6
		c1.9,1.8,4.2,3.2,6.6,4.4c2.4,1.1,4.9,2.2,7.4,3.2c2.5,0.9,4.9,1.9,7.3,2.8c2.3,0.9,4.4,2,6.2,3.3s3.2,2.8,4.3,4.6
		c1,1.8,1.6,4,1.6,6.7v2.5c0,1.7-0.4,3.4-1.1,4.9c-0.7,1.5-1.7,2.9-2.9,4c-1.2,1.2-2.6,2.1-4.2,2.7c-1.6,0.7-3.2,1-5,1h-5.3
		c-1.7,0-3.4-0.3-5-1s-3-1.6-4.2-2.7c-1.2-1.2-2.2-2.5-2.9-4s-1.1-3.1-1.1-4.9v-5.5h-9.5v5.6c0,3,0.6,5.8,1.8,8.5
		c1.2,2.6,2.8,4.9,4.8,6.9c2,1.9,4.4,3.5,7.1,4.6c2.7,1.1,5.5,1.7,8.5,1.7h6.1c3,0,5.8-0.6,8.5-1.7s5-2.7,7.1-4.6
		c2-2,3.6-4.3,4.8-6.9s1.8-5.5,1.8-8.5v-2.5c0-3.7-0.6-6.9-1.8-9.6C577.5,52.1,575.9,49.9,573.9,48z"/>
	<path class="st0" d="M501.2,6.3c-2-2-4.3-3.5-6.9-4.6c-2.6-1.1-5.4-1.7-8.4-1.7h-6c-3,0-5.8,0.6-8.5,1.7c-2.6,1.1-5,2.7-6.9,4.6
		c-2,2-3.5,4.3-4.6,6.9s-1.7,5.4-1.7,8.4v45.3c0,3,0.6,5.8,1.7,8.4c1.1,2.6,2.7,4.9,4.6,6.9c2,2,4.3,3.5,6.9,4.6
		c2.6,1.1,5.5,1.7,8.5,1.7h6c3,0,5.8-0.6,8.4-1.7c2.6-1.1,4.9-2.7,6.9-4.6c2-2,3.5-4.3,4.6-6.9s1.7-5.4,1.7-8.4V21.6
		c0-3-0.6-5.8-1.7-8.4C504.8,10.5,503.2,8.2,501.2,6.3z M498.1,21.6v45.3c0,1.7-0.3,3.4-1,4.9s-1.6,2.9-2.7,4
		c-1.1,1.1-2.5,2.1-4,2.7s-3.1,1-4.9,1h-5.3c-1.7,0-3.4-0.3-4.9-1s-2.8-1.6-4-2.7c-1.1-1.2-2.1-2.5-2.7-4c-0.6-1.5-1-3.1-1-4.9V21.6
		c0-1.7,0.3-3.4,1-4.9s1.6-2.8,2.7-4c1.1-1.1,2.5-2,4-2.7c1.5-0.6,3.1-1,4.9-1h5.3c1.7,0,3.4,0.3,4.9,1s2.8,1.6,4,2.7
		c1.1,1.1,2,2.5,2.7,4S498.1,19.8,498.1,21.6z"/>
	<path class="st0" d="M428.9,48c-1.9-1.8-4.2-3.3-6.6-4.6c-2.4-1.2-4.9-2.3-7.4-3.3s-4.9-2-7.3-2.9c-2.3-0.9-4.4-2-6.2-3.3
		c-1.8-1.2-3.2-2.7-4.3-4.5c-1-1.7-1.6-3.8-1.6-6.3v-1.6c0-1.7,0.3-3.4,1-4.9s1.6-2.8,2.7-4c1.1-1.1,2.5-2,4-2.7
		c1.5-0.6,3.1-1,4.9-1h4.7c1.7,0,3.4,0.3,4.9,1s2.8,1.6,4,2.7c1.1,1.1,2,2.5,2.7,4c0.6,1.5,1,3.1,1,4.9v4.4l9.5,0.1v-4.4
		c0-3-0.6-5.8-1.7-8.4c-1.1-2.6-2.7-4.9-4.6-6.9c-2-2-4.3-3.5-6.9-4.6c-2.6-1.1-5.4-1.7-8.4-1.7h-5.5c-3,0-5.8,0.6-8.5,1.7
		c-2.6,1.1-5,2.7-6.9,4.6c-2,2-3.5,4.3-4.6,6.9s-1.7,5.4-1.7,8.4v1.6c0,3.7,0.6,6.9,1.8,9.5s2.8,4.8,4.8,6.6
		c1.9,1.8,4.2,3.2,6.6,4.4c2.4,1.1,4.9,2.2,7.4,3.2c2.5,0.9,4.9,1.9,7.3,2.8c2.3,0.9,4.4,2,6.2,3.3s3.2,2.8,4.3,4.6
		c1,1.8,1.6,4,1.6,6.7v2.5c0,1.7-0.4,3.4-1.1,4.9c-0.7,1.5-1.7,2.9-2.9,4c-1.2,1.2-2.6,2.1-4.2,2.7c-1.6,0.7-3.2,1-5,1h-5.3
		c-1.7,0-3.4-0.3-5-1s-3-1.6-4.2-2.7c-1.2-1.2-2.2-2.5-2.9-4s-1.1-3.1-1.1-4.9v-5.5h-9.5v5.6c0,3,0.6,5.8,1.8,8.5
		c1.2,2.6,2.8,4.9,4.8,6.9c2,1.9,4.4,3.5,7.1,4.6c2.7,1.1,5.5,1.7,8.5,1.7h6.1c3,0,5.8-0.6,8.5-1.7s5-2.7,7.1-4.6
		c2-2,3.6-4.3,4.8-6.9s1.8-5.5,1.8-8.5v-2.5c0-3.7-0.6-6.9-1.8-9.6C432.5,52.1,430.9,49.9,428.9,48z"/>
	<polygon class="st0" points="316.9,87.3 366.3,87.3 366.3,78.2 326.4,78.2 326.4,48.8 358.7,48.8 358.7,39.7 326.4,39.7
		326.4,10.2 366.3,10.2 366.3,1.1 316.9,1.1 	"/>
	<polygon class="st0" points="261.7,48.9 238,1.1 231.8,1.1 231.8,87.3 241.1,87.3 241.1,26.2 259.2,62.5 264.3,62.5 282.2,26.3
		282.2,87.3 291.5,87.3 291.5,1.1 285.3,1.1 	"/>
</g>
<linearGradient id="SVGID_1_" gradientUnits="userSpaceOnUse" x1="0.8" y1="728.75" x2="176" y2="728.75" gradientTransform="matrix(1 0 0 -1 0 794)">
	<stop  offset="4.254332e-04" style="stop-color:#7D58FF"/>
	<stop  offset="1" style="stop-color:#FF007D"/>
</linearGradient>
<path class="st1" d="M169.5,2.4c-1.3-0.9-3-1.3-5.3-1.3H12.6C11,1.1,8.7,1.3,7,2.5c-3.8,2.1-6.2,6-6.2,10.4v87.8
	c0,6.1,4.1,8.9,7.9,8.9c1.7,0,3.5-0.5,5.2-1.6l39-24l27.7,40.9c1.9,2.8,4.8,4.5,7.8,4.5s5.9-1.6,7.8-4.5l35.2-52.1l31.5,15.5
	c4,2,8.4,1.3,10.9-1.7c1.4-1.7,2.2-3.9,2.2-6.4V12.8C176,8.4,173.4,4.3,169.5,2.4z M47.8,76.5L10,99.8V20.6L47.8,76.5z M155.8,20.6
	l-27.4,40.5l-21.3-10.5L155.8,20.6z M24.9,10.2h130.4l-58,35.7L24.9,10.2z M123.2,68.8l-34.5,51.1c-0.1,0.2-0.2,0.3-0.3,0.3
	c-0.1-0.1-0.2-0.2-0.3-0.3L60.6,79.3l37.2-22.9L123.2,68.8z M88.2,51.6L55.5,71.7L18.8,17.3L88.2,51.6z M166.9,20.5v59.6l-30.3-14.9
	L166.9,20.5z"/>
</svg>
