<?xml version="1.0" encoding="utf-8"?>
<!-- Generator: Adobe Illustrator 21.1.0, SVG Export Plug-In . SVG Version: 6.00 Build 0)  -->
<svg version="1.1" id="Layer_1" xmlns="http://www.w3.org/2000/svg" xmlns:xlink="http://www.w3.org/1999/xlink" x="0px" y="0px"
	 viewBox="0 0 1095 120" style="enable-background:new 0 0 1095 120;" xml:space="preserve">
<style type="text/css">
	.st0{fill:#11161F;}
	.st1{fill:url(#SVGID_1_);}
	.st2{fill:url(#SVGID_2_);}
</style>
<g>
	<polygon class="st0" points="787.1,16.6 787.1,9.1 746.5,9.1 746.5,80 787.1,80 787.1,72.5 754.3,72.5 754.3,48.3 780.8,48.3 
		780.8,40.8 754.3,40.8 754.3,16.6 	"/>
	<path class="st0" d="M715.6,49c2.1-0.9,4.1-2.2,5.7-3.8c1.6-1.6,2.9-3.5,3.8-5.7c0.9-2.2,1.4-4.5,1.4-7V27c0-2.4-0.5-4.8-1.4-7
		s-2.2-4.1-3.8-5.7s-3.5-2.9-5.7-3.8c-2.1-0.9-4.5-1.4-6.9-1.4h-22.8V80h7.8V50.4h7.3L719.8,80h9L710,50.4
		C712,50.2,713.9,49.8,715.6,49z M712.4,42.1c-1.2,0.5-2.6,0.8-4,0.8h-14.7V16.6h14.7c1.4,0,2.8,0.3,4,0.8s2.3,1.3,3.3,2.2
		c0.9,0.9,1.7,2,2.2,3.3c0.5,1.2,0.8,2.6,0.8,4v5.6c0,1.4-0.3,2.8-0.8,4s-1.3,2.4-2.2,3.3C714.7,40.8,713.7,41.6,712.4,42.1z"/>
	<polygon class="st0" points="627.2,80 667.8,80 667.8,72.5 635,72.5 635,48.3 661.6,48.3 661.6,40.8 635,40.8 635,16.6 667.8,16.6 
		667.8,9.1 627.2,9.1 	"/>
	<polygon class="st0" points="596.4,40.8 571.4,40.8 571.4,9.1 563.6,9.1 563.6,80 571.4,80 571.4,48.3 596.4,48.3 596.4,80 
		604.1,80 604.1,9.1 596.4,9.1 	"/>
	<path class="st0" d="M540.1,14.3c-1.6-1.6-3.5-2.9-5.7-3.8s-4.5-1.4-6.9-1.4h-22.7V80h7.8V53.4h14.9c2.4,0,4.8-0.5,6.9-1.4
		c2.2-0.9,4.1-2.2,5.7-3.8c1.6-1.6,2.9-3.5,3.8-5.7c0.9-2.1,1.4-4.5,1.4-6.9V27c0-2.4-0.5-4.8-1.4-7C543,17.9,541.7,15.9,540.1,14.3
		z M537.6,27v8.6c0,1.4-0.3,2.8-0.8,4s-1.3,2.3-2.2,3.3c-0.9,0.9-2.1,1.7-3.3,2.2s-2.6,0.8-4,0.8h-14.6V16.7h14.6
		c1.4,0,2.8,0.3,4,0.8s2.3,1.3,3.3,2.2c0.9,0.9,1.7,2,2.2,3.3C537.3,24.2,537.6,25.5,537.6,27z"/>
	<path class="st0" d="M479.7,47.7c-1.6-1.5-3.4-2.7-5.4-3.8c-1.9-1-4-1.9-6.1-2.7c-2.1-0.8-4.1-1.6-6-2.4s-3.6-1.7-5.1-2.7
		s-2.6-2.2-3.5-3.7c-0.9-1.4-1.3-3.1-1.3-5.2V26c0-1.4,0.3-2.8,0.8-4s1.3-2.3,2.2-3.3c0.9-0.9,2-1.7,3.3-2.2c1.2-0.5,2.6-0.8,4-0.8
		h3.9c1.4,0,2.8,0.3,4,0.8s2.3,1.3,3.3,2.2c0.9,0.9,1.7,2,2.2,3.3c0.5,1.2,0.8,2.6,0.8,4v3.6l7.8,0.1V26c0-2.5-0.5-4.8-1.4-6.9
		s-2.2-4.1-3.8-5.7s-3.5-2.9-5.7-3.8c-2.1-0.9-4.5-1.4-6.9-1.4h-4.4c-2.4,0-4.8,0.5-7,1.4s-4.1,2.2-5.7,3.8
		c-1.6,1.6-2.9,3.5-3.8,5.7c-0.9,2.1-1.4,4.5-1.4,6.9v1.3c0,3.1,0.5,5.7,1.5,7.8c1,2.1,2.3,3.9,3.9,5.4c1.6,1.4,3.4,2.7,5.4,3.6
		c1.9,0.9,4,1.8,6.1,2.6c2.1,0.8,4.1,1.5,6,2.3c1.9,0.7,3.6,1.7,5.1,2.7c1.4,1,2.6,2.3,3.5,3.8c0.9,1.4,1.3,3.3,1.3,5.5v2.1
		c0,1.4-0.3,2.8-0.9,4c-0.6,1.2-1.4,2.3-2.4,3.3c-1,0.9-2.2,1.7-3.4,2.2c-1.3,0.5-2.7,0.8-4.1,0.8h-4.3c-1.4,0-2.8-0.3-4.1-0.8
		s-2.5-1.3-3.5-2.2c-1-1-1.8-2.1-2.4-3.3c-0.6-1.2-0.9-2.6-0.9-4v-4.5h-7.8v4.6c0,2.5,0.5,4.8,1.5,6.9s2.3,4,4,5.6s3.6,2.9,5.8,3.8
		s4.5,1.4,7,1.4h5c2.4,0,4.8-0.5,7-1.4s4.1-2.2,5.8-3.8c1.7-1.6,3-3.5,4-5.6c1-2.2,1.5-4.5,1.5-6.9v-2.1c0-3.1-0.5-5.7-1.5-7.9
		C482.6,51.1,481.3,49.2,479.7,47.7z"/>
	<path class="st0" d="M420,13.4c-1.6-1.6-3.5-2.9-5.7-3.8c-2.1-0.9-4.5-1.4-6.9-1.4h-4.9c-2.4,0-4.8,0.5-7,1.4s-4.1,2.2-5.7,3.8
		c-1.6,1.6-2.9,3.5-3.8,5.7c-0.9,2.1-1.4,4.5-1.4,6.9v37.2c0,2.5,0.5,4.8,1.4,6.9s2.2,4,3.8,5.7c1.6,1.6,3.5,2.9,5.7,3.8
		s4.5,1.4,7,1.4h4.9c2.4,0,4.8-0.5,6.9-1.4s4.1-2.2,5.7-3.8c1.6-1.6,2.9-3.5,3.8-5.7c0.9-2.1,1.4-4.5,1.4-6.9V26
		c0-2.5-0.5-4.8-1.4-6.9C422.8,16.9,421.6,15,420,13.4z M417.4,26v37.2c0,1.4-0.3,2.8-0.8,4s-1.3,2.3-2.2,3.3
		c-0.9,0.9-2,1.7-3.3,2.2c-1.2,0.5-2.6,0.8-4,0.8h-4.3c-1.4,0-2.8-0.3-4-0.8s-2.3-1.3-3.3-2.2c-0.9-0.9-1.7-2.1-2.2-3.3
		c-0.5-1.2-0.8-2.6-0.8-4V26c0-1.4,0.3-2.8,0.8-4s1.3-2.3,2.2-3.3c0.9-0.9,2-1.7,3.3-2.2c1.2-0.5,2.6-0.8,4-0.8h4.3
		c1.4,0,2.8,0.3,4,0.8s2.3,1.3,3.3,2.2c0.9,0.9,1.7,2,2.2,3.3C417.1,23.2,417.4,24.5,417.4,26z"/>
	<path class="st0" d="M360.5,47.7c-1.6-1.5-3.4-2.7-5.4-3.8c-1.9-1-4-1.9-6.1-2.7c-2.1-0.8-4.1-1.6-6-2.4s-3.6-1.7-5.1-2.7
		s-2.6-2.2-3.5-3.7c-0.9-1.4-1.3-3.1-1.3-5.2V26c0-1.4,0.3-2.8,0.8-4s1.3-2.3,2.2-3.3c0.9-0.9,2-1.7,3.3-2.2c1.2-0.5,2.6-0.8,4-0.8
		h3.9c1.4,0,2.8,0.3,4,0.8s2.3,1.3,3.3,2.2c0.9,0.9,1.7,2,2.2,3.3c0.5,1.2,0.8,2.6,0.8,4v3.6l7.8,0.1V26c0-2.5-0.5-4.8-1.4-6.9
		s-2.2-4.1-3.8-5.7c-1.6-1.6-3.5-2.9-5.7-3.8c-2.1-0.9-4.5-1.4-6.9-1.4h-4.4c-2.4,0-4.8,0.5-7,1.4s-4.1,2.2-5.7,3.8
		c-1.6,1.6-2.9,3.5-3.8,5.7c-0.9,2.1-1.4,4.5-1.4,6.9v1.3c0,3.1,0.5,5.7,1.5,7.8c1,2.1,2.3,3.9,3.9,5.4c1.6,1.4,3.4,2.7,5.4,3.6
		s4,1.8,6.1,2.6c2.1,0.8,4.1,1.5,6,2.3c1.9,0.7,3.6,1.7,5.1,2.7c1.4,1,2.6,2.3,3.5,3.8c0.9,1.4,1.3,3.3,1.3,5.5v2.1
		c0,1.4-0.3,2.8-0.9,4s-1.4,2.3-2.4,3.3c-1,0.9-2.2,1.7-3.4,2.2c-1.3,0.5-2.7,0.8-4.1,0.8H343c-1.4,0-2.8-0.3-4.1-0.8
		c-1.3-0.5-2.5-1.3-3.5-2.2c-1-1-1.8-2.1-2.4-3.3c-0.6-1.2-0.9-2.6-0.9-4v-4.5h-7.8v4.6c0,2.5,0.5,4.8,1.5,6.9s2.3,4,4,5.6
		s3.6,2.9,5.8,3.8c2.2,0.9,4.5,1.4,7,1.4h5c2.4,0,4.8-0.5,7-1.4s4.1-2.2,5.8-3.8c1.7-1.6,3-3.5,4-5.6c1-2.2,1.5-4.5,1.5-6.9v-2.1
		c0-3.1-0.5-5.7-1.5-7.9C363.4,51.1,362.1,49.2,360.5,47.7z"/>
	<polygon class="st0" points="268.4,80 309,80 309,72.5 276.2,72.5 276.2,48.3 302.8,48.3 302.8,40.8 276.2,40.8 276.2,16.6 
		309,16.6 309,9.1 268.4,9.1 	"/>
	<polygon class="st0" points="223,48.4 203.6,9.1 198.5,9.1 198.5,80 206.1,80 206.1,29.8 221,59.6 225.1,59.6 239.9,29.8 239.9,80 
		247.5,80 247.5,9.1 242.5,9.1 	"/>
</g>
<linearGradient id="SVGID_1_" gradientUnits="userSpaceOnUse" x1="8.5" y1="58.1" x2="152.5033" y2="58.1" gradientTransform="matrix(1 0 0 -1 0 120)">
	<stop  offset="4.254332e-04" style="stop-color:#7D58FF"/>
	<stop  offset="1" style="stop-color:#FF007D"/>
</linearGradient>
<path class="st1" d="M147.2,10.2c-1.1-0.7-2.5-1-4.4-1.1H18.2c-1.3,0-3.2,0.1-4.6,1.1c-3.2,1.7-5.1,5-5.1,8.5V91
	c0,5,3.4,7.3,6.5,7.3c1.4,0,2.9-0.4,4.3-1.3l32-19.7L74.1,111c1.6,2.3,3.9,3.7,6.4,3.7s4.8-1.3,6.4-3.7l29-42.8l25.9,12.7
	c3.3,1.6,6.9,1,8.9-1.4c1.2-1.4,1.8-3.2,1.8-5.3V18.8C152.6,15.2,150.4,11.8,147.2,10.2z M47.2,71.1L16.1,90.3V25.2L47.2,71.1z
	 M136,25.2l-22.5,33.3L96,49.9L136,25.2z M28.4,16.6h107.2L87.9,46L28.4,16.6z M109.2,64.8l-28.4,42c-0.1,0.1-0.2,0.2-0.2,0.3
	c-0.1-0.1-0.1-0.2-0.2-0.3L57.8,73.4l30.6-18.8L109.2,64.8z M80.4,50.6L53.5,67.2L23.3,22.5L80.4,50.6z M145.1,25.1v49l-24.9-12.3
	L145.1,25.1z"/>
<g>
	
		<linearGradient id="SVGID_2_" gradientUnits="userSpaceOnUse" x1="942.4" y1="75.45" x2="980.3761" y2="75.45" gradientTransform="matrix(1 0 0 -1 0 120)">
		<stop  offset="4.254332e-04" style="stop-color:#7D58FF"/>
		<stop  offset="1" style="stop-color:#FF007D"/>
	</linearGradient>
	<path class="st2" d="M942.4,85.4l26-76.6c1-3,3.9-5.1,7.1-5.1h4.8l-26,76.6c-1,3-3.9,5.1-7.1,5.1H942.4z"/>
	<path class="st0" d="M835.3,9.8h25.3c11.5,0,20.4,8.7,20.4,20.2v29.5c0,11.5-8.9,20.2-20.4,20.2h-25.3V9.8z M860.4,67.6
		c4.6,0,8-3.6,8-8.2V29.9c0-4.6-3.4-8.2-8-8.2h-12.6v45.9L860.4,67.6L860.4,67.6z"/>
	<path class="st0" d="M927.1,55.7h12.6v4.8c0,11.5-8.9,20.2-20.4,20.2h-5c-11.5,0-20.4-8.7-20.4-20.2V29c0-11.5,8.9-20.2,20.4-20.2
		h5c11.5,0,20.4,8.7,20.4,20.2v4.8h-12.6V29c0-4.6-3.4-8.2-8-8.2h-4.6c-4.6,0-8,3.6-8,8.2v31.5c0,4.6,3.4,8.2,8,8.2h4.6
		c4.6,0,8-3.6,8-8.2V55.7z"/>
	<g>
		<path class="st0" d="M1028.7,60.5c0,11.5-8.9,20.2-20.4,20.2h-5c-11.5,0-20.4-8.7-20.4-20.2V29c0-11.5,8.9-20.2,20.4-20.2h5
			c11.5,0,20.4,8.7,20.4,20.2V60.5z M995.6,60.5c0,4.6,3.4,8.2,8,8.2h4.6c4.6,0,8-3.6,8-8.2V29c0-4.6-3.4-8.2-8-8.2h-4.6
			c-4.6,0-8,3.6-8,8.2V60.5z"/>
		<path class="st0" d="M1042.2,28.9c0-11.5,8.9-20.2,20.4-20.2h3.5c11.5,0,20.4,8.7,20.4,20.2v3.5h-12.6v-3.5c0-4.6-3.4-8.2-8-8.2
			h-3.1c-4.6,0-8,3.6-8,8.2v0.6c0,14.1,32.1,4.1,32.1,30v0.9c0,11.5-8.9,20.2-20.4,20.2h-4.5c-11.5,0-20.4-8.7-20.4-20.2V57h12.6
			v3.5c0,4.6,3.4,8.2,8,8.2h4.1c4.6,0,8-3.6,8-8.2v-0.9c0-14.9-32.1-3.1-32.1-30V28.9z"/>
	</g>
</g>
</svg>
