<svg width="32" height="23" xmlns="http://www.w3.org/2000/svg" xmlns:xlink="http://www.w3.org/1999/xlink">
  <use xlink:href="#path0_fill" transform="translate(0 .1)" fill="url(#paint0_linear)"/>
  <defs>
    <linearGradient id="paint0_linear" x2="1" gradientUnits="userSpaceOnUse" gradientTransform="matrix(31.491 0 0 31.2655 .015 -4.156)">
      <stop offset="0" stop-color="#7D58FF"/>
      <stop offset="1" stop-color="#FF007D"/>
    </linearGradient>
    <path id="path0_fill" d="M30.333.23C30.1.092 29.777 0 29.36 0H2.13c-.278 0-.694.046-1.019.276A2.055 2.055 0 0 0 0 2.115v15.678c0 1.104.741 1.61 1.436 1.61.324 0 .648-.092.926-.276l6.993-4.276 5 7.31c.325.506.88.782 1.39.782.556 0 1.065-.276 1.39-.782l6.344-9.287 5.65 2.758c.74.368 1.482.23 1.945-.321.231-.276.37-.69.37-1.15V2.115c.047-.782-.417-1.517-1.111-1.885zM8.475 13.472L1.667 17.61V3.494l6.808 9.978zm19.403-9.978l-4.955 7.265-3.843-1.885 8.798-5.38zM4.353 1.655h23.433L17.366 8 4.353 1.655zm17.644 10.437l-6.206 9.15c0 .046-.046.046-.046.046l-.046-.046-4.909-7.265 6.669-4.092 4.538 2.207zm-6.252-3.08l-5.881 3.632-6.622-9.701 12.503 6.069zM29.87 3.494v10.621l-5.419-2.667 5.419-7.954z"/>
  </defs>
</svg>