<svg xmlns="http://www.w3.org/2000/svg" width="279" height="179" viewBox="0 0 279 179">
  <defs>
    <linearGradient id="mesosphere-dcos--vertical--color--dark-a" x1="0%" y1="0%" y2="100%">
      <stop offset="0%" stop-color="#7D58FF"/>
      <stop offset="100%" stop-color="#FF007D"/>
    </linearGradient>
  </defs>
  <g fill="none" fill-rule="evenodd">
    <path fill="#251C4B" d="M202.736026,168.592811 L202.736026,169.546811 C202.736026,170.827811 202.471026,172.050811 201.950026,173.180811 C201.444026,174.281811 200.752026,175.260811 199.897026,176.091811 C199.041026,176.920811 198.035026,177.581811 196.906026,178.055811 C195.768026,178.534811 194.549026,178.776811 193.283026,178.776811 L190.997026,178.776811 C189.732026,178.776811 188.512026,178.534811 187.374026,178.055811 C186.245026,177.581811 185.239026,176.920811 184.384026,176.091811 C183.528026,175.260811 182.836026,174.280811 182.330026,173.179811 C181.810026,172.050811 181.545026,170.827811 181.545026,169.546811 L181.545026,167.416811 L187.247026,167.416811 L187.247026,169.546811 C187.247026,170.042811 187.348026,170.507811 187.545026,170.927811 C187.758026,171.379811 188.047026,171.782811 188.406026,172.124811 C188.765026,172.468811 189.189026,172.741811 189.665026,172.937811 C190.133026,173.131811 190.633026,173.229811 191.153026,173.229811 L193.150026,173.229811 C193.667026,173.229811 194.162026,173.132811 194.621026,172.939811 C195.093026,172.742811 195.515026,172.468811 195.874026,172.124811 C196.234026,171.782811 196.523026,171.379811 196.736026,170.927811 C196.933026,170.507811 197.033026,170.042811 197.033026,169.546811 L197.033026,168.592811 C197.033026,167.760811 196.883026,167.086811 196.587026,166.586811 C196.261026,166.033811 195.819026,165.555811 195.273026,165.163811 C194.658026,164.721811 193.951026,164.342811 193.170026,164.032811 C192.282026,163.679811 191.370026,163.328811 190.432026,162.976811 C189.451026,162.608811 188.484026,162.196811 187.555026,161.751811 C186.539026,161.264811 185.614026,160.646811 184.807026,159.914811 C183.958026,159.144811 183.270026,158.195811 182.763026,157.092811 C182.249026,155.977811 181.988026,154.620811 181.988026,153.059811 L181.988026,152.460811 C181.988026,151.191811 182.233026,149.979811 182.714026,148.859811 C183.190026,147.751811 183.855026,146.765811 184.691026,145.930811 C185.526026,145.095811 186.516026,144.430811 187.633026,143.953811 C188.761026,143.473811 189.975026,143.229811 191.241026,143.229811 L193.283026,143.229811 C194.552026,143.229811 195.764026,143.473811 196.883026,143.954811 C197.991026,144.431811 198.978026,145.096811 199.812026,145.930811 C200.648026,146.765811 201.313026,147.751811 201.788026,148.860811 C202.270026,149.979811 202.514026,151.191811 202.514026,152.460811 L202.514026,154.121811 L196.811026,154.121811 L196.811026,152.460811 C196.811026,151.948811 196.716026,151.470811 196.529026,151.039811 C196.335026,150.593811 196.069026,150.198811 195.740026,149.869811 C195.410026,149.540811 195.018026,149.274811 194.570026,149.081811 C194.139026,148.893811 193.661026,148.799811 193.150026,148.799811 L191.375026,148.799811 C190.863026,148.799811 190.386026,148.893811 189.953026,149.081811 C189.504026,149.276811 189.104026,149.544811 188.765026,149.878811 C188.432026,150.205811 188.165026,150.596811 187.974026,151.038811 C187.786026,151.470811 187.692026,151.948811 187.692026,152.460811 L187.692026,153.059811 C187.692026,153.808811 187.836026,154.423811 188.123026,154.886811 C188.448026,155.414811 188.890026,155.874811 189.436026,156.254811 C190.055026,156.686811 190.770026,157.068811 191.565026,157.390811 C192.456026,157.751811 193.374026,158.120811 194.319026,158.496811 C195.299026,158.887811 196.267026,159.323811 197.194026,159.790811 C198.203026,160.298811 199.123026,160.934811 199.929026,161.681811 C200.775026,162.465811 201.460026,163.428811 201.965026,164.544811 C202.477026,165.673811 202.736026,167.034811 202.736026,168.592811 Z M171.851035,145.930811 C172.687035,146.765811 173.351035,147.751811 173.826035,148.860811 C174.308035,149.979811 174.552035,151.191811 174.552035,152.460811 L174.552035,169.546811 C174.552035,170.815811 174.308035,172.027811 173.826035,173.146811 C173.351035,174.255811 172.687035,175.239811 171.851035,176.075811 C171.015035,176.911811 170.029035,177.575811 168.921035,178.051811 C167.803035,178.532811 166.591035,178.776811 165.321035,178.776811 L163.058035,178.776811 C161.790035,178.776811 160.577035,178.533811 159.449035,178.052811 C158.332035,177.576811 157.343035,176.911811 156.507035,176.075811 C155.671035,175.240811 155.006035,174.255811 154.531035,173.145811 C154.049035,172.027811 153.805035,170.815811 153.805035,169.546811 L153.805035,152.460811 C153.805035,151.191811 154.049035,149.979811 154.531035,148.859811 C155.006035,147.751811 155.671035,146.765811 156.507035,145.930811 C157.343035,145.095811 158.332035,144.430811 159.449035,143.953811 C160.577035,143.473811 161.790035,143.229811 163.058035,143.229811 L165.321035,143.229811 C166.591035,143.229811 167.802035,143.473811 168.921035,143.954811 C170.030035,144.431811 171.016035,145.096811 171.851035,145.930811 Z M168.847048,169.546811 L168.847048,152.460811 C168.847048,151.948811 168.751048,151.470811 168.565048,151.039811 C168.370048,150.593811 168.105048,150.198811 167.775048,149.869811 C167.445048,149.540811 167.053048,149.274811 166.607048,149.081811 C166.175048,148.893811 165.696048,148.799811 165.186048,148.799811 L163.189048,148.799811 C162.677048,148.799811 162.199048,148.893811 161.767048,149.081811 C161.316048,149.276811 160.916048,149.544811 160.578048,149.878811 C160.245048,150.205811 159.979048,150.596811 159.787048,151.038811 C159.600048,151.470811 159.505048,151.948811 159.505048,152.460811 L159.505048,169.546811 C159.505048,170.056811 159.600048,170.535811 159.787048,170.966811 C159.981048,171.413811 160.250048,171.810811 160.586048,172.147811 C160.923048,172.484811 161.320048,172.753811 161.767048,172.946811 C162.199048,173.134811 162.677048,173.229811 163.189048,173.229811 L165.186048,173.229811 C165.696048,173.229811 166.175048,173.134811 166.606048,172.947811 C167.048048,172.755811 167.440048,172.489811 167.768048,172.155811 C168.102048,171.815811 168.369048,171.415811 168.564048,170.967811 C168.751048,170.535811 168.847048,170.056811 168.847048,169.546811 Z M124.227022,148.860811 C124.710022,149.979811 124.954022,151.191811 124.954022,152.460811 L124.954022,154.121811 L119.251022,154.121811 L119.251022,152.460811 C119.251022,151.948811 119.156022,151.470811 118.968022,151.039811 C118.774022,150.593811 118.509022,150.198811 118.180022,149.869811 C117.850022,149.540811 117.457022,149.274811 117.010022,149.081811 C116.579022,148.893811 116.101022,148.799811 115.589022,148.799811 L113.592022,148.799811 C113.081022,148.799811 112.603022,148.893811 112.172022,149.081811 C111.721022,149.276811 111.321022,149.544811 110.982022,149.878811 C110.650022,150.205811 110.383022,150.596811 110.192022,151.038811 C110.005022,151.470811 109.909022,151.948811 109.909022,152.460811 L109.909022,169.546811 C109.909022,170.056811 110.005022,170.535811 110.191022,170.966811 C110.385022,171.413811 110.654022,171.810811 110.991022,172.147811 C111.328022,172.484811 111.725022,172.753811 112.172022,172.946811 C112.603022,173.134811 113.081022,173.229811 113.592022,173.229811 L115.589022,173.229811 C116.101022,173.229811 116.579022,173.134811 117.009022,172.947811 C117.453022,172.755811 117.843022,172.489811 118.172022,172.155811 C118.506022,171.815811 118.774022,171.415811 118.967022,170.967811 C119.156022,170.535811 119.251022,170.056811 119.251022,169.546811 L119.251022,167.416811 L124.954022,167.416811 L124.954022,169.546811 C124.954022,170.815811 124.710022,172.027811 124.227022,173.146811 C123.753022,174.255811 123.088022,175.239811 122.252022,176.075811 C121.416022,176.911811 120.430022,177.575811 119.323022,178.051811 C118.204022,178.532811 116.992022,178.776811 115.722022,178.776811 L113.460022,178.776811 C112.192022,178.776811 110.979022,178.533811 109.852022,178.052811 C108.734022,177.576811 107.744022,176.911811 106.908022,176.075811 C106.072022,175.239811 105.408022,174.255811 104.932022,173.145811 C104.451022,172.027811 104.207022,170.815811 104.207022,169.546811 L104.207022,152.460811 C104.207022,151.191811 104.451022,149.979811 104.932022,148.859811 C105.408022,147.751811 106.072022,146.765811 106.908022,145.930811 C107.744022,145.095811 108.734022,144.430811 109.851022,143.953811 C110.979022,143.473811 112.192022,143.229811 113.460022,143.229811 L115.722022,143.229811 C116.992022,143.229811 118.203022,143.473811 119.323022,143.954811 C120.431022,144.431811 121.417022,145.096811 122.252022,145.930811 C123.088022,146.765811 123.753022,147.751811 124.227022,148.860811 Z M94.505022,146.375811 C95.340022,147.210811 96.006022,148.200811 96.482022,149.317811 C96.964022,150.445811 97.207022,151.659811 97.207022,152.926811 L97.207022,169.101811 C97.207022,170.371811 96.963022,171.583811 96.480022,172.703811 C96.006022,173.810811 95.340022,174.795811 94.505022,175.631811 C93.670022,176.466811 92.679022,177.132811 91.562022,177.608811 C90.434022,178.090811 89.221022,178.333811 87.954022,178.333811 L76.460022,178.333811 L76.460022,143.673811 L87.954022,143.673811 C89.221022,143.673811 90.434022,143.917811 91.561022,144.397811 C92.679022,144.874811 93.670022,145.540811 94.505022,146.375811 Z M91.504022,169.101811 L91.504022,152.926811 C91.504022,152.415811 91.409022,151.937811 91.221022,151.505811 C91.028022,151.058811 90.758022,150.661811 90.422022,150.324811 C90.085022,149.987811 89.687022,149.718811 89.241022,149.524811 C88.809022,149.337811 88.332022,149.242811 87.820022,149.242811 L82.162022,149.242811 L82.162022,172.762811 L87.820022,172.762811 C88.332022,172.762811 88.809022,172.668811 89.241022,172.481811 C89.690022,172.286811 90.090022,172.017811 90.430022,171.684811 C90.764022,171.356811 91.029022,170.965811 91.220022,170.523811 C91.409022,170.091811 91.504022,169.613811 91.504022,169.101811 Z M258.245003,90.6990506 L278.160004,90.6990506 L278.160004,94.5823782 L262.269003,94.5823782 L262.269003,106.075348 L275.136004,106.075348 L275.136004,109.958675 L262.269003,109.958675 L262.269003,121.428643 L278.160004,121.428643 L278.160004,125.310971 L258.245003,125.310971 L258.245003,90.6990506 Z M244.628009,110.281703 C243.832009,110.623732 242.987009,110.83875 242.104008,110.924757 L251.247009,125.310971 L246.571009,125.310971 L237.454008,110.96676 L234.079008,110.96676 L234.079008,125.310971 L230.056008,125.310971 L230.056008,90.6990506 L241.220008,90.6990506 C242.423009,90.6990506 243.571009,90.92907 244.628009,91.3841084 C245.682009,91.8371466 246.618009,92.4681998 247.410009,93.2602666 C248.202009,94.0523335 248.832009,94.9914127 249.286009,96.0535023 C249.740009,97.1195922 249.970009,98.2696893 249.970009,99.4727908 L249.970009,102.19202 C249.970009,103.395122 249.740009,104.546219 249.286009,105.611309 C248.832009,106.673398 248.202009,107.613478 247.410009,108.405544 C246.618009,109.197611 245.682009,109.828664 244.628009,110.281703 Z M234.079008,107.083433 L241.080008,107.083433 C241.757008,107.083433 242.396009,106.955422 242.978009,106.702401 C243.565009,106.448379 244.083009,106.094349 244.520009,105.650312 C244.958009,105.204274 245.311009,104.67923 245.566009,104.09118 C245.819009,103.509131 245.947009,102.870077 245.947009,102.19202 L245.947009,99.4727908 C245.947009,98.7957336 245.819009,98.1566797 245.566009,97.5746306 C245.311009,96.9855809 244.958009,96.4615367 244.520009,96.014499 C244.083009,95.5714616 243.565009,95.2174318 242.978009,94.9624102 C242.396009,94.710389 241.757008,94.5823782 241.080008,94.5823782 L234.079008,94.5823782 L234.079008,107.083433 Z M202.142007,90.6990506 L222.056008,90.6990506 L222.056008,94.5823782 L206.165007,94.5823782 L206.165007,106.075348 L219.033008,106.075348 L219.033008,109.958675 L206.165007,109.958675 L206.165007,121.428643 L222.056008,121.428643 L222.056008,125.310971 L202.142007,125.310971 L202.142007,90.6990506 Z M189.119007,90.6990506 L193.142007,90.6990506 L193.142007,125.310971 L189.119007,125.310971 L189.119007,109.958675 L177.251006,109.958675 L177.251006,125.310971 L173.228006,125.310971 L173.228006,90.6990506 L177.251006,90.6990506 L177.251006,106.075348 L189.119007,106.075348 L189.119007,90.6990506 Z M162.667006,93.2602666 C163.459006,94.0523335 164.090006,94.9914127 164.543006,96.0535023 C164.997006,97.1195922 165.228006,98.2696893 165.228006,99.4727908 L165.228006,103.645143 C165.228006,104.849244 164.997006,105.995341 164.542006,107.05443 C164.089006,108.108519 163.458006,109.044598 162.667006,109.835665 C161.875006,110.627732 160.935006,111.259785 159.873006,111.711823 C158.808006,112.165862 157.658006,112.395881 156.454005,112.395881 L149.337005,112.395881 L149.337005,125.310971 L145.314005,125.310971 L145.314005,90.6990506 L156.454005,90.6990506 C157.658006,90.6990506 158.808006,90.92907 159.873006,91.3841084 C160.935006,91.8361465 161.875006,92.4681998 162.667006,93.2602666 Z M161.204006,103.645143 L161.204006,99.4727908 C161.204006,98.7957336 161.077006,98.1566797 160.824006,97.5746306 C160.569006,96.986581 160.214006,96.4635369 159.769006,96.0174993 C159.324006,95.5724617 158.800006,95.2174318 158.212006,94.9624102 C157.630006,94.710389 156.992006,94.5823782 156.314005,94.5823782 L149.337005,94.5823782 L149.337005,108.512553 L156.314005,108.512553 C156.992006,108.512553 157.630006,108.385543 158.212006,108.132521 C158.801006,107.8775 159.326006,107.52547 159.772006,107.086433 C160.215006,106.649396 160.570006,106.130352 160.824006,105.544303 C161.077006,104.962254 161.204006,104.3232 161.204006,103.645143 Z M136.589005,112.158861 C137.070005,113.219951 137.314005,114.51906 137.314005,116.021187 L137.314005,117.029272 C137.314005,118.237374 137.066005,119.388471 136.577005,120.449561 C136.091005,121.501649 135.433005,122.434728 134.619005,123.224795 C133.804005,124.014861 132.845005,124.643914 131.769005,125.096953 C130.689005,125.550991 129.532005,125.78001 128.329005,125.78001 L125.915004,125.78001 C124.713004,125.78001 123.556004,125.550991 122.476004,125.096953 C121.399004,124.643914 120.441004,124.014861 119.625004,123.224795 C118.812004,122.434728 118.153004,121.501649 117.668004,120.449561 C117.179004,119.388471 116.931004,118.237374 116.931004,117.029272 L116.931004,114.419052 L120.954004,114.419052 L120.954004,117.029272 C120.954004,117.701329 121.092004,118.336382 121.364004,118.914431 C121.641004,119.504481 122.019004,120.029525 122.487004,120.476563 C122.955004,120.923601 123.507004,121.280631 124.126004,121.536652 C124.742004,121.791674 125.399004,121.920685 126.079004,121.920685 L128.189005,121.920685 C128.869005,121.920685 129.521005,121.791674 130.128005,121.537652 C130.741005,121.280631 131.288005,120.924601 131.757005,120.476563 C132.226005,120.029525 132.604005,119.504481 132.880005,118.914431 C133.153005,118.336382 133.290005,117.702329 133.290005,117.029272 L133.290005,116.021187 C133.290005,114.961097 133.085005,114.077023 132.680005,113.392965 C132.265005,112.690906 131.704005,112.083855 131.014005,111.587813 C130.300005,111.07477 129.481005,110.633732 128.579005,110.274702 C127.636004,109.900671 126.666004,109.527639 125.669004,109.153608 C124.661004,108.774576 123.665004,108.35054 122.710004,107.893501 C121.726004,107.421461 120.830004,106.823411 120.048004,106.114351 C119.251004,105.39129 118.605004,104.497215 118.125004,103.456127 C117.644004,102.410039 117.400004,101.116929 117.400004,99.6138027 L117.400004,98.9807493 C117.400004,97.7776478 117.630004,96.630551 118.084004,95.5724617 C118.537004,94.5183728 119.168004,93.5822938 119.960004,92.7912271 C120.752004,91.9991602 121.692004,91.368107 122.754004,90.9150688 C123.820004,90.4610305 124.970004,90.230011 126.173004,90.230011 L128.329005,90.230011 C129.533005,90.230011 130.679005,90.4610305 131.738005,90.9150688 C132.791005,91.368107 133.727005,91.9991602 134.519005,92.7912271 C135.310005,93.5822938 135.941005,94.5183728 136.394005,95.5724617 C136.849005,96.630551 137.079005,97.7776478 137.079005,98.9807493 L137.079005,101.12293 L133.056005,101.12293 L133.056005,98.9807493 C133.056005,98.3036921 132.928005,97.6646382 132.675005,97.081589 C132.420005,96.4945395 132.070005,95.9744956 131.632005,95.5374588 C131.195005,95.0994218 130.675005,94.7483922 130.087005,94.4933707 C129.505005,94.2413494 128.867005,94.1133386 128.189005,94.1133386 L126.314004,94.1133386 C125.636004,94.1133386 124.997004,94.2413494 124.414004,94.4933707 C123.827004,94.7493923 123.301004,95.101422 122.856004,95.540459 C122.412004,95.9764958 122.058004,96.4955396 121.803004,97.081589 C121.551004,97.6646382 121.423004,98.3036921 121.423004,98.9807493 L121.423004,99.6138027 C121.423004,100.592885 121.626004,101.418955 122.029004,102.07001 C122.443004,102.742067 123.003004,103.328116 123.694004,103.809157 C124.410004,104.309199 125.232004,104.748236 126.138004,105.116267 C127.082004,105.498299 128.054004,105.888332 129.053005,106.286366 C130.062005,106.6884 131.057005,107.136437 132.011005,107.617478 C132.995005,108.11252 133.888005,108.730572 134.669005,109.455633 C135.464005,110.192695 136.111005,111.101772 136.589005,112.158861 Z M106.371004,92.7912271 C107.162004,93.5822938 107.793004,94.5183728 108.246004,95.5724617 C108.701004,96.630551 108.931004,97.7776478 108.931004,98.9807493 L108.931004,117.029272 C108.931004,118.232373 108.701004,119.38047 108.246004,120.437559 C107.793004,121.491648 107.162004,122.427727 106.371004,123.219794 C105.579004,124.011861 104.643004,124.641914 103.589004,125.094952 C102.531004,125.549991 101.384004,125.78001 100.181004,125.78001 L97.7900034,125.78001 C96.5870034,125.78001 95.4370034,125.549991 94.3710033,125.095953 C93.3090033,124.641914 92.3700032,124.011861 91.5780032,123.219794 C90.7860032,122.427727 90.1550032,121.491648 89.7020031,120.437559 C89.2470031,119.38047 89.0170031,118.232373 89.0170031,117.029272 L89.0170031,98.9807493 C89.0170031,97.7776478 89.2470031,96.630551 89.7020031,95.5724617 C90.1550032,94.5183728 90.7860032,93.5822938 91.5780032,92.7912271 C92.3700032,91.9991602 93.3090033,91.368107 94.3710033,90.9150688 C95.4370034,90.4610305 96.5870034,90.230011 97.7900034,90.230011 L100.181004,90.230011 C101.384004,90.230011 102.531004,90.4610305 103.589004,90.9150688 C104.643004,91.368107 105.579004,91.9991602 106.371004,92.7912271 Z M104.908004,117.029272 L104.908004,98.9807493 C104.908004,98.3036921 104.780004,97.6646382 104.527004,97.081589 C104.272004,96.4945395 103.921004,95.9744956 103.484004,95.5374588 C103.046004,95.0994218 102.527004,94.7483922 101.939004,94.4943708 C101.357004,94.2413494 100.718004,94.1133386 100.040004,94.1133386 L97.9310034,94.1133386 C97.2530034,94.1133386 96.6150034,94.2413494 96.0320034,94.4943708 C95.4440034,94.7493923 94.9180033,95.101422 94.4730033,95.540459 C94.0290033,95.9764958 93.6750033,96.4955396 93.4200033,97.081589 C93.1680033,97.6646382 93.0400033,98.3036921 93.0400033,98.9807493 L93.0400033,117.029272 C93.0400033,117.707329 93.1680033,118.346383 93.4200033,118.928432 C93.6750033,119.515482 94.0310033,120.039526 94.4760033,120.484563 C94.9210033,120.930601 95.4450034,121.284631 96.0320034,121.539652 C96.6150034,121.792674 97.2530034,121.920685 97.9310034,121.920685 L100.040004,121.920685 C100.718004,121.920685 101.357004,121.792674 101.939004,121.539652 C102.525004,121.285631 103.043004,120.930601 103.481004,120.487564 C103.919004,120.041526 104.272004,119.516482 104.527004,118.928432 C104.780004,118.346383 104.908004,117.707329 104.908004,117.029272 Z M80.2920028,112.158861 C80.7730028,113.219951 81.0170028,114.51906 81.0170028,116.021187 L81.0170028,117.029272 C81.0170028,118.237374 80.7690028,119.388471 80.2800028,120.449561 C79.7940028,121.501649 79.1360028,122.434728 78.3220027,123.224795 C77.5070027,124.014861 76.5480027,124.643914 75.4720026,125.096953 C74.3920026,125.550991 73.2350026,125.78001 72.0330025,125.78001 L69.6190024,125.78001 C68.4160024,125.78001 67.2590024,125.550991 66.1790023,125.096953 C65.1020023,124.643914 64.1440023,124.014861 63.3290022,123.224795 C62.5150022,122.434728 61.8560022,121.501649 61.3710022,120.449561 C60.8820021,119.388471 60.6340021,118.237374 60.6340021,117.029272 L60.6340021,114.419052 L64.6580023,114.419052 L64.6580023,117.029272 C64.6580023,117.702329 64.7950023,118.336382 65.0670023,118.914431 C65.3440023,119.504481 65.7220023,120.029525 66.1900023,120.476563 C66.6590023,120.923601 67.2100024,121.280631 67.8290024,121.536652 C68.4450024,121.791674 69.1020024,121.920685 69.7830024,121.920685 L71.8920025,121.920685 C72.5720025,121.920685 73.2240026,121.791674 73.8310026,121.537652 C74.4440026,121.280631 74.9920026,120.924601 75.4600026,120.476563 C75.9290027,120.029525 76.3070027,119.504481 76.5830027,118.914431 C76.8560027,118.336382 76.9940027,117.702329 76.9940027,117.029272 L76.9940027,116.021187 C76.9940027,114.961097 76.7880027,114.077023 76.3830027,113.392965 C75.9680027,112.690906 75.4080026,112.083855 74.7170026,111.587813 C74.0030026,111.07477 73.1840026,110.633732 72.2820025,110.274702 C71.3390025,109.900671 70.3700025,109.527639 69.3720024,109.153608 C68.3640024,108.774576 67.3690024,108.35054 66.4130023,107.893501 C65.4290023,107.421461 64.5340023,106.823411 63.7510022,106.114351 C62.9540022,105.39129 62.3070022,104.497215 61.8290022,103.456127 C61.3470022,102.410039 61.1030021,101.116929 61.1030021,99.6138027 L61.1030021,98.9807493 C61.1030021,97.7776478 61.3330022,96.630551 61.7870022,95.5724617 C62.2410022,94.5183728 62.8710022,93.5822938 63.6630022,92.7912271 C64.4550023,91.9991602 65.3950023,91.368107 66.4570023,90.9150688 C67.5230024,90.4610305 68.6730024,90.230011 69.8760025,90.230011 L72.0330025,90.230011 C73.2360026,90.230011 74.3820026,90.4610305 75.4410026,90.9150688 C76.4950027,91.368107 77.4300027,91.9991602 78.2220027,92.7912271 C79.0130028,93.5822938 79.6440028,94.5183728 80.0970028,95.5724617 C80.5520028,96.630551 80.7830028,97.7776478 80.7830028,98.9807493 L80.7830028,101.12293 L76.7590027,101.12293 L76.7590027,98.9807493 C76.7590027,98.3036921 76.6310027,97.6646382 76.3780027,97.081589 C76.1230027,96.4945395 75.7730027,95.9744956 75.3350026,95.5374588 C74.8980026,95.0994218 74.3780026,94.7483922 73.7900026,94.4933707 C73.2080026,94.2413494 72.5700025,94.1133386 71.8920025,94.1133386 L70.0170025,94.1133386 C69.3390024,94.1133386 68.7010024,94.2413494 68.1180024,94.4943708 C67.5300024,94.7493923 67.0040024,95.101422 66.5590023,95.540459 C66.1150023,95.9764958 65.7610023,96.4955396 65.5060023,97.081589 C65.2540023,97.6646382 65.1260023,98.3036921 65.1260023,98.9807493 L65.1260023,99.6138027 C65.1260023,100.592885 65.3290023,101.418955 65.7310023,102.07001 C66.1460023,102.742067 66.7060023,103.328116 67.3970024,103.809157 C68.1130024,104.309199 68.9350024,104.748236 69.8410025,105.116267 C70.7860025,105.498299 71.7570025,105.888332 72.7560026,106.286366 C73.7650026,106.6884 74.7600026,107.136437 75.7140027,107.617478 C76.6980027,108.11252 77.5910027,108.731572 78.3720028,109.455633 C79.1670028,110.192695 79.8140028,111.101772 80.2920028,112.158861 Z M33.7200012,90.6990506 L53.6340019,90.6990506 L53.6340019,94.5823782 L37.7440013,94.5823782 L37.7440013,106.075348 L50.6110018,106.075348 L50.6110018,109.958675 L37.7440013,109.958675 L37.7440013,121.428643 L53.6340019,121.428643 L53.6340019,125.310971 L33.7200012,125.310971 L33.7200012,90.6990506 Z M22.3410008,90.6990506 L24.7190009,90.6990506 L24.7190009,125.310971 L20.6960007,125.310971 L20.6960007,101.12293 L13.4620005,113.073938 L11.3060004,113.073938 L4.02400014,101.150932 L4.02400014,125.310971 L0,125.310971 L0,90.6990506 L2.35500008,90.6990506 L12.3600004,107.442463 L22.3410008,90.6990506 Z"/>
    <polygon fill="url(#mesosphere-dcos--vertical--color--dark-a)" points="144.08 143.23 128.91 178.776 133.644 178.776 148.81 143.23"/>
    <path fill="url(#mesosphere-dcos--vertical--color--dark-a)" d="M108.125027,6.39429863 L142.230886,26.399129 L170.975923,6.39429863 L108.125027,6.39429863 Z M147.963694,29.7605165 L157.270882,35.2218337 L170.321945,14.2015373 L147.963694,29.7605165 Z M106.017598,12.1541058 L123.118525,39.6991839 L136.777068,30.195502 L106.017598,12.1541058 Z M162.477208,38.2742316 L177.575703,47.1299351 L177.575703,13.9570455 L162.477208,38.2742316 Z M100.034298,13.9570455 L100.034298,55.7636462 L118.158191,43.1505683 L100.034298,13.9570455 Z M126.305919,44.833512 L138.805,64.9628383 L154.087989,40.3486621 L142.508376,33.5568895 L126.305919,44.833512 Z M138.8035,71.453121 C136.850566,71.453121 135.052126,70.3596576 133.867166,68.4517215 L133.867166,68.4502215 L121.345585,48.2848965 L102.434218,61.4469559 C100.514282,62.7834112 98.4233519,63.0354028 96.7059094,62.1369328 C94.985467,61.2384629 94,59.3815251 94,57.0401034 L94,7.87624903 C94,4.95434683 95.6754439,2.41643178 98.1173622,1.17447335 C98.8628372,0.700489214 99.944301,0.36150056 101.510249,0.36000061 L101.511749,0.36000061 L101.517748,0.36000061 L176.092252,0.36000061 L176.098252,0.36000061 L176.099752,0.36000061 C177.559203,0.36150056 178.601668,0.667490318 179.347143,1.10097581 C181.867059,2.31593514 183.610001,4.89584879 183.610001,7.87624903 L183.610001,47.8979094 C183.610001,50.1883328 182.642533,52.0572702 180.95359,53.0262378 C179.263146,53.9922055 177.158717,53.8827091 175.184783,52.7247479 L159.292815,43.4025599 L143.741335,68.4502215 C142.556375,70.3596576 140.757935,71.453121 138.8035,71.453121 Z"/>
  </g>
</svg>
