<svg xmlns="http://www.w3.org/2000/svg" width="127" height="126" viewBox="0 0 127 126">
  <defs>
    <linearGradient id="mesosphere-dcos-reduced--vertical--color--dark-a" x1="0%" y1="0%" y2="100%">
      <stop offset="0%" stop-color="#7D58FF"/>
      <stop offset="100%" stop-color="#FF007D"/>
    </linearGradient>
  </defs>
  <g fill="none" fill-rule="evenodd">
    <path fill="#251C4B" d="M126.279999,115.593011 L126.279999,116.547011 C126.279999,117.828011 126.01499,119.051011 125.493974,120.181011 C124.987958,121.282011 124.295936,122.261011 123.440909,123.092011 C122.584882,123.921011 121.57885,124.582011 120.449814,125.056011 C119.311778,125.535011 118.09274,125.777011 116.8267,125.777011 L114.540627,125.777011 C113.275587,125.777011 112.055549,125.535011 110.917513,125.056011 C109.788477,124.582011 108.782445,123.921011 107.927418,123.092011 C107.071391,122.261011 106.379369,121.281011 105.873353,120.180011 C105.353337,119.051011 105.088328,117.828011 105.088328,116.547011 L105.088328,114.417011 L110.790509,114.417011 L110.790509,116.547011 C110.790509,117.043011 110.891512,117.508011 111.088518,117.928011 C111.301525,118.380011 111.590534,118.783011 111.949545,119.125011 C112.308557,119.469011 112.73257,119.742011 113.208585,119.938011 C113.6766,120.132011 114.176616,120.230011 114.696632,120.230011 L116.693695,120.230011 C117.210712,120.230011 117.705728,120.133011 118.164742,119.940011 C118.636757,119.743011 119.05877,119.469011 119.417782,119.125011 C119.777793,118.783011 120.066802,118.380011 120.279809,117.928011 C120.476815,117.508011 120.576818,117.043011 120.576818,116.547011 L120.576818,115.593011 C120.576818,114.761011 120.426814,114.087011 120.130804,113.587011 C119.804794,113.034011 119.36278,112.556011 118.816763,112.164011 C118.201743,111.722011 117.494721,111.343011 116.713696,111.033011 C115.825668,110.680011 114.913639,110.329011 113.97561,109.977011 C112.994578,109.609011 112.027548,109.197011 111.098518,108.752011 C110.082486,108.265011 109.157457,107.647011 108.350432,106.915011 C107.501405,106.145011 106.813383,105.196011 106.306367,104.093011 C105.792351,102.978011 105.531342,101.621011 105.531342,100.060011 L105.531342,99.461011 C105.531342,98.192011 105.77635,96.980011 106.257365,95.860011 C106.73338,94.752011 107.398401,93.766011 108.234428,92.931011 C109.069454,92.096011 110.059486,91.431011 111.176521,90.954011 C112.304557,90.474011 113.518595,90.230011 114.784635,90.230011 L116.8267,90.230011 C118.09574,90.230011 119.307778,90.474011 120.426814,90.955011 C121.534849,91.432011 122.52188,92.097011 123.355906,92.931011 C124.191933,93.766011 124.856954,94.752011 125.331969,95.861011 C125.813984,96.980011 126.057992,98.192011 126.057992,99.461011 L126.057992,101.122011 L120.354811,101.122011 L120.354811,99.461011 C120.354811,98.949011 120.259808,98.471011 120.072802,98.040011 C119.878796,97.594011 119.612788,97.199011 119.283777,96.870011 C118.953767,96.541011 118.561755,96.275011 118.11374,96.082011 C117.682727,95.894011 117.204712,95.800011 116.693695,95.800011 L114.918639,95.800011 C114.406623,95.800011 113.929608,95.894011 113.496594,96.082011 C113.04758,96.277011 112.647567,96.545011 112.308557,96.879011 C111.975546,97.206011 111.708538,97.597011 111.517532,98.039011 C111.329526,98.471011 111.235523,98.949011 111.235523,99.461011 L111.235523,100.060011 C111.235523,100.809011 111.379527,101.424011 111.666536,101.887011 C111.991547,102.415011 112.433561,102.875011 112.979578,103.255011 C113.598598,103.687011 114.31362,104.069011 115.108645,104.391011 C115.999674,104.752011 116.917703,105.121011 117.862732,105.497011 C118.842763,105.888011 119.810794,106.324011 120.737823,106.791011 C121.746855,107.299011 122.666884,107.935011 123.47291,108.682011 C124.318937,109.466011 125.003958,110.429011 125.508974,111.545011 C126.020991,112.674011 126.279999,114.035011 126.279999,115.593011 Z M95.3940314,92.931011 C96.2300579,93.766011 96.8940789,94.752011 97.3690939,95.861011 C97.8511091,96.980011 98.0951169,98.192011 98.0951169,99.461011 L98.0951169,116.547011 C98.0951169,117.816011 97.8511091,119.028011 97.3690939,120.147011 C96.8940789,121.256011 96.2300579,122.240011 95.3940314,123.076011 C94.558005,123.912011 93.5719738,124.576011 92.4639387,125.052011 C91.3459033,125.533011 90.133865,125.777011 88.8638248,125.777011 L86.6007532,125.777011 C85.3327131,125.777011 84.1196747,125.534011 82.991639,125.053011 C81.8746037,124.577011 80.8855724,123.912011 80.049546,123.076011 C79.2135195,122.241011 78.5484985,121.256011 78.0734834,120.146011 C77.5914682,119.028011 77.3474605,117.816011 77.3474605,116.547011 L77.3474605,99.461011 C77.3474605,98.192011 77.5914682,96.980011 78.0734834,95.860011 C78.5484985,94.752011 79.2135195,93.766011 80.049546,92.931011 C80.8855724,92.096011 81.8746037,91.431011 82.991639,90.954011 C84.1196747,90.474011 85.3327131,90.230011 86.6007532,90.230011 L88.8638248,90.230011 C90.133865,90.230011 91.3449033,90.474011 92.4639387,90.955011 C93.5729738,91.432011 94.559005,92.097011 95.3940314,92.931011 Z M92.3899486,116.547011 L92.3899486,99.461011 C92.3899486,98.949011 92.2939455,98.471011 92.1079397,98.040011 C91.9129335,97.594011 91.6479251,97.199011 91.3179147,96.870011 C90.9879042,96.541011 90.5958918,96.275011 90.1498777,96.082011 C89.717864,95.894011 89.2388489,95.800011 88.7288327,95.800011 L86.7317696,95.800011 C86.2197534,95.800011 85.7417382,95.894011 85.3097246,96.082011 C84.8587103,96.277011 84.4586977,96.545011 84.120687,96.879011 C83.7876764,97.206011 83.521668,97.597011 83.3296619,98.039011 C83.142656,98.471011 83.047653,98.949011 83.047653,99.461011 L83.047653,116.547011 C83.047653,117.057011 83.142656,117.536011 83.3296619,117.967011 C83.5236681,118.414011 83.7926766,118.811011 84.1286872,119.148011 C84.4656979,119.485011 84.8627104,119.754011 85.3097246,119.947011 C85.7417382,120.135011 86.2197534,120.230011 86.7317696,120.230011 L88.7288327,120.230011 C89.2388489,120.230011 89.717864,120.135011 90.1488777,119.948011 C90.5908917,119.756011 90.9829041,119.490011 91.3109144,119.156011 C91.644925,118.816011 91.9119335,118.416011 92.1069396,117.968011 C92.2939455,117.536011 92.3899486,117.057011 92.3899486,116.547011 Z M47.7685113,95.861011 C48.2515265,96.980011 48.4955343,98.192011 48.4955343,99.461011 L48.4955343,101.122011 L42.7923538,101.122011 L42.7923538,99.461011 C42.7923538,98.949011 42.6973508,98.471011 42.5093449,98.040011 C42.3153387,97.594011 42.0503303,97.199011 41.7213199,96.870011 C41.3913095,96.541011 40.9982971,96.275011 40.5512829,96.082011 C40.1202693,95.894011 39.6422542,95.800011 39.130238,95.800011 L37.1331748,95.800011 C36.6221586,95.800011 36.1441435,95.894011 35.7131299,96.082011 C35.2621156,96.277011 34.8621029,96.545011 34.5230922,96.879011 C34.1910817,97.206011 33.9240733,97.597011 33.7330672,98.039011 C33.5460613,98.471011 33.4500583,98.949011 33.4500583,99.461011 L33.4500583,116.547011 C33.4500583,117.057011 33.5460613,117.536011 33.7320672,117.967011 C33.9260733,118.414011 34.1950818,118.811011 34.5320925,119.148011 C34.8691032,119.485011 35.2661157,119.754011 35.7131299,119.947011 C36.1441435,120.135011 36.6221586,120.230011 37.1331748,120.230011 L39.130238,120.230011 C39.6422542,120.230011 40.1202693,120.135011 40.5502829,119.948011 C40.9942969,119.756011 41.3843093,119.490011 41.7133197,119.156011 C42.0473303,118.816011 42.3153387,118.416011 42.5083448,117.968011 C42.6973508,117.536011 42.7923538,117.057011 42.7923538,116.547011 L42.7923538,114.417011 L48.4955343,114.417011 L48.4955343,116.547011 C48.4955343,117.816011 48.2515265,119.028011 47.7685113,120.147011 C47.2944963,121.256011 46.6294752,122.240011 45.7934488,123.076011 C44.9574223,123.912011 43.9713911,124.576011 42.8643561,125.052011 C41.7453207,125.533011 40.5332824,125.777011 39.2632422,125.777011 L37.0011706,125.777011 C35.7331305,125.777011 34.5200921,125.534011 33.3930565,125.053011 C32.2750211,124.577011 31.2849898,123.912011 30.4489633,123.076011 C29.6129369,122.240011 28.9489159,121.256011 28.4729008,120.146011 C27.9918856,119.028011 27.7478779,117.816011 27.7478779,116.547011 L27.7478779,99.461011 C27.7478779,98.192011 27.9918856,96.980011 28.4729008,95.860011 C28.9489159,94.752011 29.6129369,93.766011 30.4489633,92.931011 C31.2849898,92.096011 32.2750211,91.431011 33.3920564,90.954011 C34.5200921,90.474011 35.7331305,90.230011 37.0011706,90.230011 L39.2632422,90.230011 C40.5332824,90.230011 41.7443207,90.474011 42.8643561,90.955011 C43.9723912,91.432011 44.9584223,92.097011 45.7934488,92.931011 C46.6294752,93.766011 47.2944963,94.752011 47.7685113,95.861011 Z M18.0455709,93.376011 C18.8805973,94.211011 19.5466184,95.201011 20.0226335,96.318011 C20.5046487,97.446011 20.7476564,98.660011 20.7476564,99.927011 L20.7476564,116.102011 C20.7476564,117.372011 20.5036487,118.584011 20.0206334,119.704011 C19.5466184,120.811011 18.8805973,121.796011 18.0455709,122.632011 C17.2105445,123.467011 16.2195131,124.133011 15.1024778,124.609011 C13.9744421,125.091011 12.7614037,125.334011 11.4943636,125.334011 L0,125.334011 L0,90.674011 L11.4943636,90.674011 C12.7614037,90.674011 13.9744421,90.918011 15.1014778,91.398011 C16.2195131,91.875011 17.2105445,92.541011 18.0455709,93.376011 Z M15.044476,116.102011 L15.044476,99.927011 C15.044476,99.416011 14.949473,98.938011 14.761467,98.506011 C14.5684609,98.059011 14.2984524,97.662011 13.9624417,97.325011 C13.6254311,96.988011 13.2274185,96.719011 12.7814044,96.525011 C12.3493907,96.338011 11.8723756,96.243011 11.3603594,96.243011 L5.7021804,96.243011 L5.7021804,119.763011 L11.3603594,119.763011 C11.8723756,119.763011 12.3493907,119.669011 12.7814044,119.482011 C13.2304186,119.287011 13.6304312,119.018011 13.970442,118.685011 C14.3044525,118.357011 14.5694609,117.966011 14.760467,117.524011 C14.949473,117.092011 15.044476,116.614011 15.044476,116.102011 Z"/>
    <polygon fill="url(#mesosphere-dcos-reduced--vertical--color--dark-a)" points="68.08 90.23 52.91 125.78 57.644 125.78 72.81 90.23"/>
    <path fill="url(#mesosphere-dcos-reduced--vertical--color--dark-a)" d="M32.1250272,6.39429863 L66.2308856,26.399129 L94.9759235,6.39429863 L32.1250272,6.39429863 Z M71.9636937,29.7605165 L81.2708822,35.2218337 L94.3219454,14.2015373 L71.9636937,29.7605165 Z M30.0175978,12.1541058 L47.1185254,39.6991839 L60.7770682,30.195502 L30.0175978,12.1541058 Z M86.477208,38.2742316 L101.575703,47.1299351 L101.575703,13.9570455 L86.477208,38.2742316 Z M24.034298,13.9570455 L24.034298,55.7636462 L42.1581914,43.1505683 L24.034298,13.9570455 Z M50.3059187,44.833512 L62.8050003,64.9628383 L78.0879888,40.3486621 L66.5083763,33.5568895 L50.3059187,44.833512 Z M62.8035004,71.453121 C60.8505657,71.453121 59.0521259,70.3596576 57.8671656,68.4517215 L57.8671656,68.4502215 L45.3455847,48.2848965 L26.4342177,61.4469559 C24.514282,62.7834112 22.4233519,63.0354028 20.7059094,62.1369328 C18.985467,61.2384629 18,59.3815251 18,57.0401034 L18,7.87624903 C18,4.95434683 19.6754439,2.41643178 22.1173622,1.17447335 C22.8628372,0.700489214 23.944301,0.36150056 25.5102486,0.36000061 L25.5117486,0.36000061 L25.5177484,0.36000061 L100.092252,0.36000061 L100.098252,0.36000061 L100.099752,0.36000061 C101.559203,0.36150056 102.601668,0.667490318 103.347143,1.10097581 C105.867059,2.31593514 107.610001,4.89584879 107.610001,7.87624903 L107.610001,47.8979094 C107.610001,50.1883328 106.642533,52.0572702 104.95359,53.0262378 C103.263146,53.9922055 101.158717,53.8827091 99.1847826,52.7247479 L83.2928145,43.4025599 L67.7413351,68.4502215 C66.5563747,70.3596576 64.7579349,71.453121 62.8035004,71.453121 Z"/>
  </g>
</svg>
