<svg xmlns="http://www.w3.org/2000/svg" width="90" height="72" viewBox="0 0 90 72">
  <defs>
    <linearGradient id="mesosphere-icon--color-a" x1="0%" y1="0%" y2="100%">
      <stop offset="0%" stop-color="#7D58FF"/>
      <stop offset="100%" stop-color="#FF007D"/>
    </linearGradient>
  </defs>
  <path fill="url(#mesosphere-icon--color-a)" fill-rule="evenodd" d="M14.1244065,6.39403347 L48.2287662,26.3979848 L76.9725409,6.39403347 L14.1244065,6.39403347 Z M53.9613224,29.7592246 L63.2681019,35.2203018 L76.3185915,14.2009291 L53.9613224,29.7592246 Z M12.0170697,12.1535876 L29.1172458,39.6974552 L42.7751884,30.1941909 L12.0170697,12.1535876 Z M68.4741988,38.2725655 L83.57203,47.1278799 L83.57203,13.956448 L68.4741988,38.2725655 Z M6.03403286,13.956448 L6.03403286,55.7612115 L24.1571298,43.148688 L6.03403286,13.956448 Z M32.304499,44.8315577 L44.8030314,64.9599994 L60.0853483,40.3469049 L48.5062447,33.5554307 L32.304499,44.8315577 Z M44.8015315,71.4499969 C42.8486827,71.4499969 41.050322,70.3565816 39.8654137,68.4487293 L39.8654137,68.4472294 L27.344383,48.2827905 L8.43384707,61.4442716 C6.5139957,62.7806681 4.42315757,63.0326486 2.70579052,62.1342182 C0.98542371,61.2357877 0,59.3789315 0,57.0376127 L0,7.87591874 C0,4.95414494 1.6753703,2.41634141 4.11718126,1.17443756 C4.86262354,0.700474251 5.94403982,0.361500494 7.5099186,0.36000061 L7.51141848,0.36000061 L7.51741801,0.36000061 L82.0886448,0.36000061 L82.0946444,0.36000061 L82.0961443,0.36000061 C83.5555313,0.361500494 84.5979506,0.667476806 85.3433929,1.10094325 C87.8631978,2.31584919 89.6060629,4.89564947 89.6060629,7.87591874 L89.6060629,47.8958205 C89.6060629,50.1861432 88.6386378,52.0549985 86.9497685,53.0239235 C85.2593994,53.9898487 83.1550623,53.8803572 81.1812151,52.7224468 L65.2899454,43.4006685 L49.7391493,68.4472294 C48.554241,70.3565816 46.7558802,71.4499969 44.8015315,71.4499969 Z"/>
</svg>
