<svg width="13" height="10" viewBox="0 0 13 10" version="1.1" xmlns="http://www.w3.org/2000/svg" xmlns:xlink="http://www.w3.org/1999/xlink">
<title>arrow</title>
<desc>Created using Figma</desc>
<g id="Canvas" transform="translate(2563 -13838)">
<g id="arrow">
<g id="Vector">
<use xlink:href="#path0_stroke" transform="matrix(6.12323e-17 -1 1 6.12323e-17 -2554.76 13847.1)" fill="#828282"/>
</g>
<g id="Vector">
<use xlink:href="#path1_stroke" transform="matrix(6.12323e-17 -1 1 6.12323e-17 -2562 13843)" fill="#828282"/>
</g>
</g>
</g>
<defs>
<path id="path0_stroke" d="M 0.355777 -0.351316C 0.161751 -0.547806 -0.154826 -0.549803 -0.351316 -0.355777C -0.547806 -0.161751 -0.549803 0.154826 -0.355777 0.351316L 0.355777 -0.351316ZM 4.04275 4.09409L 3.68698 4.44541C 3.78092 4.54054 3.90905 4.59409 4.04275 4.59409C 4.17646 4.59409 4.30459 4.54054 4.39853 4.44541L 4.04275 4.09409ZM 8.44128 0.351316C 8.63531 0.154826 8.63331 -0.161751 8.43682 -0.355777C 8.24033 -0.549803 7.92376 -0.547806 7.72973 -0.351316L 8.44128 0.351316ZM -0.355777 0.351316L 3.68698 4.44541L 4.39853 3.74277L 0.355777 -0.351316L -0.355777 0.351316ZM 4.39853 4.44541L 8.44128 0.351316L 7.72973 -0.351316L 3.68698 3.74277L 4.39853 4.44541Z"/>
<path id="path1_stroke" d="M 0.5 8.10716e-18C 0.5 -0.276142 0.276142 -0.5 1.91804e-16 -0.5C -0.276142 -0.5 -0.5 -0.276142 -0.5 -8.10716e-18L 0.5 8.10716e-18ZM -0.5 11.3293C -0.5 11.6055 -0.276142 11.8293 -8.10716e-18 11.8293C 0.276142 11.8293 0.5 11.6055 0.5 11.3293L -0.5 11.3293ZM -0.5 -8.10716e-18L -0.5 11.3293L 0.5 11.3293L 0.5 8.10716e-18L -0.5 -8.10716e-18Z"/>
</defs>
</svg>