<svg width="16" height="22" viewBox="0 0 16 22" version="1.1" xmlns="http://www.w3.org/2000/svg" xmlns:xlink="http://www.w3.org/1999/xlink" class="actions__icon">
<title>rss</title>
<desc>Created using Figma</desc>
<g id="Canvas" transform="translate(-13366 -13526)">
<g id="rss">
<g id="Vector">
<use xlink:href="#path0_stroke" transform="matrix(0.5 0.866025 -0.866025 0.5 13370.5 13531.6)" fill="#8A8392"/>
</g>
<g id="Vector">
<use xlink:href="#path1_stroke" transform="matrix(0.5 0.866025 -0.866025 0.5 13373.1 13526)" fill="#8A8392"/>
</g>
<g id="Vector">
<use xlink:href="#path2_stroke" transform="matrix(0.5 0.866025 -0.866025 0.5 13368 13537.2)" fill="#8A8392"/>
</g>
</g>
</g>
<defs>
<path id="path0_stroke" d="M -0.64 1.7795C -1.06436 2.13296 -1.12184 2.76351 -0.768375 3.18788C -0.414913 3.61224 0.215638 3.66971 0.64 3.31625L -0.64 1.7795ZM 7.04 -1.60709e-07L 7.04 -1L 7.04 -1.60709e-07ZM 13.44 3.31625C 13.8644 3.66971 14.4949 3.61224 14.8484 3.18788C 15.2018 2.76351 15.1444 2.13296 14.72 1.7795L 13.44 3.31625ZM 0.64 3.31625C 2.4742 1.76893 4.64036 0.984965 7.04 1L 7.04 -1C 4.29485 -0.984965 1.47893 0.034159 -0.64 1.7795L 0.64 3.31625ZM 7.04 1C 9.43964 0.984965 11.6058 1.76893 13.44 3.31625L 14.72 1.7795C 12.6011 0.034159 9.78515 -0.984965 7.04 -1L 7.04 1Z"/>
<path id="path1_stroke" d="M -0.66125 3.24718C -1.07556 3.61238 -1.11536 4.2443 -0.750166 4.6586C -0.384967 5.07291 0.246945 5.11271 0.66125 4.74752L -0.66125 3.24718ZM 20.4988 4.74752C 20.9131 5.11271 21.545 5.07291 21.9102 4.6586C 22.2754 4.2443 22.2356 3.61238 21.8212 3.24718L 20.4988 4.74752ZM 0.66125 4.74752C 3.43816 2.27807 6.86394 0.983732 10.58 1L 10.58 -1C 6.50466 -0.983732 2.40669 0.564566 -0.66125 3.24718L 0.66125 4.74752ZM 10.58 1C 14.2961 0.983732 17.7218 2.27807 20.4988 4.74752L 21.8212 3.24718C 18.7533 0.564566 14.6553 -0.983732 10.58 -1L 10.58 1Z"/>
<path id="path2_stroke" d="M -0.579167 0.293537C -1.02939 0.613401 -1.13507 1.23768 -0.815209 1.68791C -0.495345 2.13814 0.128939 2.24382 0.579166 1.92395L -0.579167 0.293537ZM 6.37083 1.92395C 6.82106 2.24382 7.44534 2.13814 7.76521 1.68791C 8.08507 1.23768 7.97939 0.613401 7.52917 0.293537L 6.37083 1.92395ZM 0.579166 1.92395C 1.46209 1.28209 2.38349 0.9881 3.475 1L 3.475 -1C 2.07586 -0.9881 0.568317 -0.507098 -0.579167 0.293537L 0.579166 1.92395ZM 3.475 1C 4.56651 0.9881 5.48791 1.28209 6.37083 1.92395L 7.52917 0.293537C 6.38168 -0.507098 4.87414 -0.9881 3.475 -1L 3.475 1Z"/>
</defs>
</svg>
