<svg xmlns="http://www.w3.org/2000/svg">
  <symbol id="chevron" viewBox="0 0 24 24" fill="none" stroke="currentColor" stroke-width="2" stroke-linecap="round" stroke-linejoin="round">
    <title>Chevron Right</title>
    <polyline points="9 18 15 12 9 6" />
  </symbol>
  <symbol id="search" viewBox="0 0 24 24" fill="none" stroke="currentColor" stroke-width="2" stroke-linecap="round" stroke-linejoin="round">
    <title>Search</title>
    <circle cx="10.5" cy="10.5" r="7.5" />
    <path d="M21 21l-5.2-5.2" />
  </symbol>
  <symbol id="menu" viewBox="0 0 24 24" fill="none" stroke="currentColor" stroke-width="2" stroke-linecap="round" stroke-linejoin="round">
    <title>Menu</title>
    <path d="M3 12h18M3 6h18M3 18h18" />
  </symbol>
  <symbol id="share" viewBox="0 0 24 24" fill="none" stroke="currentColor" stroke-width="2" stroke-linecap="round" stroke-linejoin="round">
    <title>Share</title>
    <path d="M4 12v8a2 2 0 0 0 2 2h12a2 2 0 0 0 2-2v-8"></path>
    <polyline points="16 6 12 2 8 6"></polyline>
    <line x1="12" y1="2" x2="12" y2="15"></line>
  </symbol>
  <symbol id="download" viewBox="0 0 24 24" fill="none" stroke="currentColor" stroke-width="2" stroke-linecap="round" stroke-linejoin="round">
    <title>Download</title>
    <path d="M3 17v3a2 2 0 0 0 2 2h14a2 2 0 0 0 2-2v-3"></path>
    <polyline points="8 12 12 16 16 12"></polyline>
    <line x1="12" y1="2" x2="12" y2="16"></line>
  </symbol>
  <symbol id="printer" viewBox="0 0 24 24" fill="none" stroke="currentColor" stroke-width="2" stroke-linecap="round" stroke-linejoin="round">
    <title>Printer</title>
    <polyline points="6 9 6 2 18 2 18 9"></polyline>
    <path d="M6 18H4a2 2 0 0 1-2-2v-5a2 2 0 0 1 2-2h16a2 2 0 0 1 2 2v5a2 2 0 0 1-2 2h-2"></path>
    <rect x="6" y="14" width="12" height="8"></rect>
  </symbol>
  <symbol id="github" viewBox="0 0 24 24" fill="none" stroke="currentColor" stroke-width="2" stroke-linecap="round" stroke-linejoin="round">
    <title>Github</title>
    <path d="M9 19c-5 1.5-5-2.5-7-3m14 6v-3.87a3.37 3.37 0 0 0-.94-2.61c3.14-.35 6.44-1.54 6.44-7A5.44 5.44 0 0 0 20 4.77 5.07 5.07 0 0 0 19.91 1S18.73.65 16 2.48a13.38 13.38 0 0 0-7 0C6.27.65 5.09 1 5.09 1A5.07 5.07 0 0 0 5 4.77a5.44 5.44 0 0 0-1.5 3.78c0 5.42 3.3 6.61 6.44 7A3.37 3.37 0 0 0 9 18.13V22"></path>
  </symbol>
  <symbol id="slack" viewBox="0 0 24 24" fill="none" stroke="currentColor" stroke-width="2" stroke-linecap="round" stroke-linejoin="round">
    <title>Slack</title>
    <path d="M22.08 9C19.81 1.41 16.54-.35 9 1.92S-.35 7.46 1.92 15 7.46 24.35 15 22.08 24.35 16.54 22.08 9z"></path><line x1="12.57" y1="5.99" x2="16.15" y2="16.39"></line><line x1="7.85" y1="7.61" x2="11.43" y2="18.01"></line><line x1="16.39" y1="7.85" x2="5.99" y2="11.43"></line><line x1="18.01" y1="12.57" x2="7.61" y2="16.15"></line>
  </symbol>
  <symbol id="message-square" viewBox="0 0 24 24" fill="none" stroke="currentColor" stroke-width="2" stroke-linecap="round" stroke-linejoin="round">
    <title>Message Square</title>
    <path d="M21 15a2 2 0 0 1-2 2H7l-4 4V5a2 2 0 0 1 2-2h14a2 2 0 0 1 2 2z"></path>
  </symbol>
  <symbol id="arrow-right" viewBox="0 0 24 24" fill="none" stroke="currentColor" stroke-width="2" stroke-linecap="round" stroke-linejoin="round">
    <title>Arrow Right</title>
    <line x1="4" y1="12" x2="20" y2="12"></line><polyline points="14 6 20 12 14 18"></polyline>
  </symbol>
</svg>